<?xml version="1.0"?>
<svg width="450" height="450" xmlns="http://www.w3.org/2000/svg" xmlns:svg="http://www.w3.org/2000/svg">
 <g class="layer">
  <title>Layer 1</title>
  <path d="m307,74c3.02538,0.23885 4.55285,0.54673 6.71094,2.73438c1.65147,2.90258 1.32997,4.13073 0.53906,7.32812c-0.20109,0.85723 -0.40219,1.71445 -0.60937,2.59766c-0.49172,1.79596 -1.05179,3.57333 -1.64063,5.33984c1.45406,-0.09281 1.45406,-0.09281 2.9375,-0.1875c5.15579,0 10.49635,1.35195 14.72266,4.375c1.95873,2.64971 2.36068,5.29368 3.02734,8.5c0.25137,1.17949 0.50273,2.35898 0.76172,3.57422c0.27264,1.35545 0.27264,1.35545 0.55078,2.73828c1.09313,-0.0825 2.18625,-0.165 3.3125,-0.25c3.6875,0.25 3.6875,0.25 5.625,1.9375c1.23533,2.68865 1.2824,4.38052 1.0625,7.3125c0,1.32 0,2.64 0,4c0,1.98 0,3.96 0,6c-6.93,-0.495 -6.93,-0.495 -14,-1c0.84563,1.11375 1.69125,2.2275 2.5625,3.375c3.04875,4.05779 5.95046,8.20677 8.83984,12.37891c1.63366,2.35725 1.63366,2.35725 3.78516,4.87109c1.5833,2.07466 2.58083,3.8522 3.6875,6.1875c1.37992,2.90482 2.88333,5.21923 4.9375,7.6875c3.49392,4.45563 5.46835,9.40301 7.65381,14.57739c3.7018,8.75835 8.53404,16.61848 13.5376,24.69605c1.80661,2.92027 3.59735,5.84873 5.37109,8.78906c0.46148,0.76441 0.92297,1.52883 1.39844,2.31641c2.46158,4.25681 4.09752,7.08885 3.22656,12.12109c-1.51007,2.00577 -3.19471,3.76789 -4.92187,5.58984c-4.70214,5.45342 -8.41123,12.02885 -11.58594,18.46875c-1.50875,2.97406 -3.23935,5.62608 -5.11719,8.37891c-2.20804,3.38994 -3.32568,5.19873 -3.875,9.25c-0.65801,4.35933 -2.62808,6.123 -5.58594,9.26953c-1.8604,1.9857 -3.5624,4.01604 -5.22656,6.16797c-0.47051,0.6007 -0.94102,1.20141 -1.42578,1.82031c-1.39778,2.09765 -1.39778,2.09765 -2.19141,4.89844c-1.20663,3.55825 -2.87447,6.35938 -4.88281,9.53125c-0.3553,0.56582 -0.7106,1.13164 -1.07666,1.7146c-1.0312,1.64042 -2.07084,3.27554 -3.11084,4.9104c-0.95981,1.5199 -1.91843,3.04056 -2.875,4.5625c-0.36867,0.57879 -0.73734,1.15758 -1.11719,1.75391c-1.03659,1.67644 -1.03659,1.67644 -1.88525,3.48828c-1.24098,2.4269 -2.63755,4.69815 -4.09131,7.0039c-0.85658,1.36802 -0.85658,1.36802 -1.73047,2.76368c-1.19876,1.90735 -2.39928,3.81361 -3.60156,5.71875c-0.57106,0.9133 -1.14211,1.8266 -1.73047,2.76757c-0.52143,0.82815 -1.04285,1.65629 -1.58008,2.50953c-1.38125,2.41888 -2.4193,4.82393 -3.38867,7.43188c1.65,0 3.3,0 5,0c-0.59426,0.22559 -1.18852,0.45117 -1.80078,0.68359c-2.80782,1.6807 -3.69922,3.59313 -5.38672,6.37891c-2.4924,3.09072 -3.93038,4.73393 -7.84985,5.63843c-1.22647,0.03553 -2.45293,0.07106 -3.71656,0.10766c-0.715,0.0247 -1.43001,0.04939 -2.16668,0.07483c-2.69366,0.07543 -5.38474,0.09991 -8.07941,0.11658c-1.15326,0.00847 -2.30652,0.01694 -3.49472,0.02567c-9.75203,0.05493 -19.50328,0.0202 -29.25528,-0.02567c-5.0993,-0.02373 -10.19858,-0.04401 -15.29792,-0.05594c-2.02132,-0.00643 -4.04255,-0.01892 -6.06384,-0.03171c-1.22608,-0.0033 -2.45215,-0.0066 -3.71539,-0.01001c-1.07457,-0.00523 -2.14915,-0.01047 -3.25629,-0.01587c-2.75926,0.10741 -5.22533,0.52848 -7.91656,1.11353c-2.13028,0.07939 -4.2628,0.10776 -6.39453,0.09766c-1.20205,-0.00323 -2.4041,-0.00645 -3.64258,-0.00977c-1.24588,-0.00838 -2.49176,-0.01676 -3.77539,-0.02539c-1.26521,-0.00451 -2.53043,-0.00902 -3.83398,-0.01367c-3.11789,-0.01177 -6.23568,-0.02821 -9.35352,-0.04883c0,0.33 0,0.66 0,1c-2.31,0 -4.62,0 -7,0c0,-0.33 0,-0.66 0,-1c-14.19,-0.33 -28.38,-0.66 -43,-1c-2.64,-5.28 -5.28,-10.56 -8,-16c-2.3081,-4.00472 -4.62939,-7.95115 -7.0625,-11.875c-0.57299,-0.94102 -1.14598,-1.88203 -1.73633,-2.85156c-2.82831,-4.60674 -5.74856,-9.10044 -8.88476,-13.50391c-2.79071,-3.93461 -5.15396,-7.90217 -7.31641,-12.20703c-3.33054,-6.42562 -6.98724,-12.53386 -11,-18.5625c-0.50273,-0.75539 -1.00547,-1.51078 -1.52344,-2.28906c-0.98177,-1.47006 -1.96354,-2.94011 -2.94531,-4.41016c-0.50531,-0.75926 -1.01063,-1.51851 -1.53125,-2.30078c-0.56719,-0.85207 -1.13438,-1.70414 -1.71875,-2.58203c-3.63561,-5.573 -6.72238,-11.21251 -9.625,-17.19531c-1.85881,-3.61679 -3.91222,-7.06701 -6.03125,-10.53516c-3.1705,-5.23339 -6.31763,-10.47619 -9.3125,-15.8125c-0.36335,-0.61529 -0.72671,-1.23057 -1.10107,-1.8645c-1.54446,-2.80645 -2.33618,-4.4286 -1.65284,-7.61597c1.5987,-2.65583 3.31175,-5.11589 5.19141,-7.58203c5.61048,-7.56504 10.15583,-15.5649 14.625,-23.83984c2.12483,-3.88702 4.31765,-7.73364 6.52954,-11.57154c1.69654,-2.94447 3.36633,-5.89614 4.9978,-8.87768c3.45861,-6.26652 7.12128,-12.02597 11.47266,-17.71094c4.83176,-6.32444 8.48245,-12.9545 12.06812,-20.04565c2.71621,-5.3218 5.74165,-10.00619 9.40844,-14.7356c3.51358,-4.95734 6.41909,-10.27157 9.38062,-15.57227c0.66818,-1.18626 0.66818,-1.18626 1.34985,-2.39648c0.59132,-1.06541 0.59132,-1.06541 1.19458,-2.15234c2.03395,-3.17574 3.21285,-4.63427 6.94727,-5.65381c11.05558,-1.4966 21.92561,-1.30494 33.06088,-0.97943c5.93566,0.17109 11.87227,0.2982 17.80899,0.42621c1.24275,0.02728 2.4855,0.05456 3.76591,0.08267c14.60918,0.30348 29.2161,0.33669 43.82784,0.3392c1.88941,0.00347 1.88941,0.00347 3.81699,0.00702c14.36621,0.02375 28.6592,-0.16518 42.99551,-1.13202c1.76463,-3.0881 2,-4.23312 2,-8c3,-2 3,-2 6,-2c0,0.66 0,1.32 0,2c1.98,0.495 1.98,0.495 4,1c0.14437,-0.63938 0.28875,-1.27875 0.4375,-1.9375c0.5625,-2.0625 0.5625,-2.0625 1.5625,-3.0625z" fill="#FEFD95" id="svg_1"/>
  <path d="m0,0c3.02538,0.23885 4.55285,0.54673 6.71094,2.73438c1.65147,2.90258 1.32997,4.13073 0.53906,7.32812c-0.20109,0.85723 -0.40219,1.71445 -0.60937,2.59766c-0.49172,1.79596 -1.05179,3.57333 -1.64063,5.33984c1.45406,-0.09281 1.45406,-0.09281 2.9375,-0.1875c5.15579,0 10.49635,1.35195 14.72266,4.375c1.95873,2.64971 2.36068,5.29368 3.02734,8.5c0.25137,1.17949 0.50273,2.35898 0.76172,3.57422c0.27264,1.35545 0.27264,1.35545 0.55078,2.73828c1.09313,-0.0825 2.18625,-0.165 3.3125,-0.25c3.6875,0.25 3.6875,0.25 5.625,1.9375c1.23533,2.68865 1.2824,4.38052 1.0625,7.3125c0,1.32 0,2.64 0,4c0,1.98 0,3.96 0,6c-6.93,-0.495 -6.93,-0.495 -14,-1c0.84563,1.11375 1.69125,2.2275 2.5625,3.375c3.04875,4.05779 5.95046,8.20677 8.83984,12.37891c1.63366,2.35725 1.63366,2.35725 3.78516,4.87109c1.5833,2.07466 2.58083,3.8522 3.6875,6.1875c1.37992,2.90482 2.88333,5.21923 4.9375,7.6875c3.49392,4.45563 5.46835,9.40301 7.65381,14.57739c3.7018,8.75835 8.53404,16.61848 13.5376,24.69605c1.80661,2.92027 3.59735,5.84873 5.37109,8.78906c0.46148,0.76441 0.92297,1.52883 1.39844,2.31641c2.46158,4.25681 4.09752,7.08885 3.22656,12.12109c-1.51007,2.00577 -3.19471,3.76789 -4.92187,5.58984c-4.70214,5.45342 -8.41123,12.02885 -11.58594,18.46875c-1.50875,2.97406 -3.23935,5.62608 -5.11719,8.37891c-2.20804,3.38994 -3.32568,5.19873 -3.875,9.25c-0.65801,4.35933 -2.62808,6.123 -5.58594,9.26953c-1.8604,1.9857 -3.5624,4.01604 -5.22656,6.16797c-0.47051,0.6007 -0.94102,1.20141 -1.42578,1.82031c-1.39778,2.09765 -1.39778,2.09765 -2.19141,4.89844c-1.20663,3.55825 -2.87447,6.35938 -4.88281,9.53125c-0.3553,0.56582 -0.7106,1.13164 -1.07666,1.7146c-1.0312,1.64042 -2.07084,3.27554 -3.11084,4.9104c-0.95981,1.5199 -1.91843,3.04056 -2.875,4.5625c-0.36867,0.57879 -0.73734,1.15758 -1.11719,1.75391c-1.03659,1.67644 -1.03659,1.67644 -1.88525,3.48828c-1.24098,2.4269 -2.63755,4.69815 -4.09131,7.0039c-0.85658,1.36802 -0.85658,1.36802 -1.73047,2.76368c-1.19876,1.90735 -2.39928,3.81361 -3.60156,5.71875c-0.57106,0.9133 -1.14211,1.8266 -1.73047,2.76757c-0.52143,0.82815 -1.04285,1.65629 -1.58008,2.50953c-1.38125,2.41888 -2.4193,4.82393 -3.38867,7.43188c1.65,0 3.3,0 5,0c-0.59426,0.22559 -1.18852,0.45117 -1.80078,0.68359c-2.80782,1.6807 -3.69922,3.59313 -5.38672,6.37891c-2.4924,3.09072 -3.93038,4.73393 -7.84985,5.63843c-1.22647,0.03553 -2.45293,0.07106 -3.71656,0.10766c-0.715,0.0247 -1.43001,0.04939 -2.16668,0.07483c-2.69366,0.07543 -5.38474,0.09991 -8.07941,0.11658c-1.15326,0.00847 -2.30652,0.01694 -3.49472,0.02567c-9.75203,0.05493 -19.50328,0.0202 -29.25528,-0.02567c-5.0993,-0.02373 -10.19858,-0.04401 -15.29792,-0.05594c-2.02132,-0.00643 -4.04255,-0.01892 -6.06384,-0.03171c-1.22608,-0.0033 -2.45215,-0.0066 -3.71539,-0.01001c-1.07457,-0.00523 -2.14915,-0.01047 -3.25629,-0.01587c-2.75926,0.10741 -5.22533,0.52848 -7.91656,1.11353c-2.13028,0.07939 -4.2628,0.10776 -6.39453,0.09766c-1.20205,-0.00323 -2.4041,-0.00645 -3.64258,-0.00977c-1.24588,-0.00838 -2.49176,-0.01676 -3.77539,-0.02539c-1.26521,-0.00451 -2.53043,-0.00902 -3.83398,-0.01367c-3.11789,-0.01177 -6.23568,-0.02821 -9.35352,-0.04883c0,0.33 0,0.66 0,1c-2.31,0 -4.62,0 -7,0c0,-0.33 0,-0.66 0,-1c-14.19,-0.33 -28.38,-0.66 -43,-1c-2.64,-5.28 -5.28,-10.56 -8,-16c-2.3081,-4.00472 -4.62939,-7.95115 -7.0625,-11.875c-0.57299,-0.94102 -1.14598,-1.88203 -1.73633,-2.85156c-2.82831,-4.60674 -5.74856,-9.10044 -8.88476,-13.50391c-2.79071,-3.93461 -5.15396,-7.90217 -7.31641,-12.20703c-3.33054,-6.42562 -6.98724,-12.53386 -11,-18.5625c-0.50273,-0.75539 -1.00547,-1.51078 -1.52344,-2.28906c-0.98177,-1.47006 -1.96354,-2.94011 -2.94531,-4.41016c-0.50531,-0.75926 -1.01063,-1.51851 -1.53125,-2.30078c-0.56719,-0.85207 -1.13438,-1.70414 -1.71875,-2.58203c-3.63561,-5.573 -6.72238,-11.21251 -9.625,-17.19531c-1.85881,-3.61679 -3.91222,-7.06701 -6.03125,-10.53516c-3.1705,-5.23339 -6.31763,-10.47619 -9.3125,-15.8125c-0.36335,-0.61529 -0.72671,-1.23057 -1.10107,-1.8645c-1.54446,-2.80645 -2.33618,-4.4286 -1.65284,-7.61597c1.5987,-2.65583 3.31175,-5.11589 5.19141,-7.58203c5.61048,-7.56504 10.15583,-15.5649 14.625,-23.83984c2.12483,-3.88702 4.31765,-7.73364 6.52954,-11.57154c1.69654,-2.94447 3.36633,-5.89614 4.9978,-8.87768c3.45861,-6.26652 7.12128,-12.02597 11.47266,-17.71094c4.83176,-6.32444 8.48245,-12.9545 12.06812,-20.04565c2.71621,-5.3218 5.74165,-10.00619 9.40844,-14.7356c3.51358,-4.95734 6.41909,-10.27157 9.38062,-15.57227c0.66818,-1.18626 0.66818,-1.18626 1.34985,-2.39648c0.59132,-1.06541 0.59132,-1.06541 1.19458,-2.15234c2.03395,-3.17574 3.21285,-4.63427 6.94727,-5.65381c11.05558,-1.4966 21.92561,-1.30494 33.06088,-0.97943c5.93566,0.17109 11.87227,0.2982 17.80899,0.42621c1.24275,0.02728 2.4855,0.05456 3.76591,0.08267c14.60918,0.30348 29.2161,0.33669 43.82784,0.3392c1.88941,0.00347 1.88941,0.00347 3.81699,0.00702c14.36621,0.02375 28.6592,-0.16518 42.99551,-1.13202c1.76463,-3.0881 2,-4.23312 2,-8c3,-2 3,-2 6,-2c0,0.66 0,1.32 0,2c1.98,0.495 1.98,0.495 4,1c0.14437,-0.63938 0.28875,-1.27875 0.4375,-1.9375c0.5625,-2.0625 0.5625,-2.0625 1.5625,-3.0625zm-160,19c0,0.99 0,1.98 0,3c-0.66,0 -1.32,0 -2,0c-1.40942,2.01688 -2.68633,4.01293 -3.9375,6.125c-0.3474,0.56977 -0.6948,1.13953 -1.05273,1.72656c-1.61528,2.67692 -3.11711,5.36651 -4.49805,8.17188c-1.69036,3.32831 -3.68984,6.38071 -5.76172,9.47656c-5.0248,7.64981 -9.8454,15.78619 -12.75,24.5c-0.66,0 -1.32,0 -2,0c-0.26684,0.7309 -0.53367,1.4618 -0.80859,2.21484c-1.52076,3.55509 -3.62392,6.4589 -5.85157,9.60157c-1.29316,2.10751 -1.89636,3.76907 -2.33984,6.18359c-0.66,0 -1.32,0 -2,0c-1.92756,2.50964 -3.41584,5.32643 -5,8.0625c-0.45117,0.75217 -0.90234,1.50434 -1.36719,2.2793c-2.04971,3.5021 -3.77968,6.70036 -4.75781,10.65429c-0.28875,0.99129 -0.5775,1.98258 -0.875,3.00391c-1.485,0.495 -1.485,0.495 -3,1c-1.2366,1.75405 -1.2366,1.75405 -2.1875,3.875c-0.51627,1.04801 -0.51627,1.04801 -1.04297,2.11719c-0.94847,2.11632 -0.94847,2.11632 -0.76953,5.00781c-0.66,0 -1.32,0 -2,0c-0.43312,0.92812 -0.86625,1.85625 -1.3125,2.8125c-1.45097,2.74071 -2.52264,4.11676 -4.6875,6.1875c-1.58914,2.67644 -2,3.81801 -2,7c-0.66,0 -1.32,0 -2,0c-1.66559,2.71106 -1.66559,2.71106 -1.77344,5.80078c1.00671,2.8625 2.52813,5.11425 4.21094,7.63672c2.29587,3.4462 4.15392,6.66236 5.5625,10.5625c0.66,0 1.32,0 2,0c0.25781,0.6948 0.51562,1.38961 0.78125,2.10547c1.35862,3.22673 2.97687,6.16944 4.71875,9.20703c0.34241,0.5974 0.68481,1.1948 1.0376,1.8103c3.22864,5.57996 6.64842,11.03732 10.13623,16.4585c2.15764,3.38745 3.99278,6.60167 5.32617,10.4187c0.66,0 1.32,0 2,0c0.25781,0.6948 0.51562,1.38961 0.78125,2.10547c1.35862,3.22673 2.97687,6.16944 4.71875,9.20703c0.34241,0.5974 0.68481,1.1948 1.0376,1.8103c3.22864,5.57996 6.64842,11.03732 10.13623,16.4585c2.15764,3.38745 3.99278,6.60167 5.32617,10.4187c0.66,0 1.32,0 2,0c0.27328,0.71801 0.54656,1.43602 0.82812,2.17578c3.45204,8.3194 8.34228,16.23485 13.17188,23.82422c0.39496,0.69528 0.78991,1.39055 1.19684,2.1069c1.69969,2.15928 1.69969,2.15928 4.593,2.38529c1.14025,-0.00369 2.28051,-0.00737 3.45532,-0.01117c1.96248,0.00825 1.96248,0.00825 3.9646,0.01666c1.45312,-0.01416 2.90623,-0.0287 4.35933,-0.04358c1.52752,-0.00113 3.05504,-0.00049 4.58255,0.00177c4.15071,0.00115 8.30095,-0.0224 12.45155,-0.05029c4.33617,-0.02498 8.67235,-0.02736 13.00858,-0.03211c8.21297,-0.01244 16.42572,-0.04528 24.63859,-0.08539c9.34932,-0.04468 18.69864,-0.0667 28.04804,-0.08679c19.23399,-0.04183 38.46778,-0.1122 57.7016,-0.20129c0.26845,-0.54487 0.53689,-1.08974 0.81348,-1.65112c0.35546,-0.71712 0.71091,-1.43425 1.07714,-2.1731c0.35095,-0.70987 0.7019,-1.41974 1.06348,-2.15112c1.0459,-2.02466 1.0459,-2.02466 2.7959,-4.83716c1.49807,-2.20171 1.49807,-2.20171 1.25,-5.1875c0.66,0 1.32,0 2,0c0.33,-1.32 0.66,-2.64 1,-4c0.66,0 1.32,0 2,0c0.39188,-0.99 0.78375,-1.98 1.1875,-3c4.6875,-10.9375 4.6875,-10.9375 8.8125,-13c1.85485,-2.74196 3.19394,-5.45253 4.5,-8.5c1.5,-3.5 1.5,-3.5 3.1875,-6.25c1.56444,-2.24775 1.56444,-2.24775 1.3125,-5.25c0.66,0 1.32,0 2,0c0.36352,-0.68965 0.72703,-1.3793 1.10156,-2.08984c2.90773,-5.43522 5.96844,-10.61982 9.44532,-15.70703c2.95681,-4.48292 5.75163,-9.09865 7.45312,-14.20313c0.66,0 1.32,0 2,0c0,-1.32 0,-2.64 0,-4c0.66,0 1.32,0 2,0c0,-1.32 0,-2.64 0,-4c0.66,0 1.32,0 2,0c0.29391,-0.57363 0.58781,-1.14727 0.89063,-1.73828c3.9604,-7.49974 8.42976,-14.60611 13.05761,-21.71021c0.50822,-0.78914 1.01643,-1.57829 1.54004,-2.39135c0.45931,-0.70504 0.91862,-1.41008 1.39185,-2.13648c1.14582,-2.07056 1.81342,-3.67797 2.11987,-6.02368c-1.09253,-2.37751 -2.20616,-4.47055 -3.5625,-6.6875c-0.36916,-0.62431 -0.73831,-1.24862 -1.11865,-1.89185c-2.48113,-4.15795 -5.12465,-8.18734 -7.86572,-12.17846c-2.75828,-4.25605 -5.08971,-8.7584 -7.45313,-13.24219c-0.66,0 -1.32,0 -2,0c-0.2475,-0.66 -0.495,-1.32 -0.75,-2c-3.22775,-7.74659 -7.22103,-15.26167 -12.25,-22c-0.66,0 -1.32,0 -2,0c0,-1.32 0,-2.64 0,-4c-0.66,0 -1.32,0 -2,0c-0.10312,-0.72187 -0.20625,-1.44375 -0.3125,-2.1875c-0.75544,-3.09043 -1.84281,-5.22994 -3.6875,-7.8125c-0.66,0 -1.32,0 -2,0c-0.46406,-1.42312 -0.46406,-1.42312 -0.9375,-2.875c-0.93645,-2.9858 -0.93645,-2.9858 -2.0625,-5.125c-0.66,0 -1.32,0 -2,0c-0.10312,-0.9075 -0.20625,-1.815 -0.3125,-2.75c-0.70944,-3.35372 -1.54144,-4.67472 -3.6875,-7.25c-0.40219,-1.08281 -0.40219,-1.08281 -0.8125,-2.1875c-1.10225,-2.09472 -1.10225,-2.09472 -3.875,-2.6875c-3.16251,-0.11934 -5.2208,0.40966 -8.18359,1.39063c-5.53487,1.2593 -12.73213,1.43901 -18.12891,-0.51563c-2.31742,-3.93961 -2.51446,-7.51688 -2,-12c1.7417,-4.34086 3.7495,-8.46749 6.71484,-12.10156c0.42411,-0.62649 0.84821,-1.25297 1.28516,-1.89844c-0.82368,-3.83574 -0.82368,-3.83574 -3,-7c-1.93628,-0.09663 -3.87614,-0.12187 -5.81483,-0.12025c-1.2635,-0.00138 -2.527,-0.00275 -3.82879,-0.00417c-1.41314,0.00354 -2.82629,0.00717 -4.23944,0.01089c-1.47796,0.00029 -2.95592,0.00013 -4.43388,-0.00044c-4.02462,-0.00029 -8.04921,0.00561 -12.07382,0.01258c-4.2014,0.00623 -8.40281,0.00683 -12.60422,0.00802c-7.96148,0.00311 -15.92295,0.01133 -23.88443,0.02135c-9.06152,0.01116 -18.12303,0.01667 -27.18456,0.0217c-18.64535,0.01046 -37.29069,0.02806 -55.93603,0.05032z" fill="#E9BC29" id="svg_2" transform="translate(307,74)"/>
  <path d="m0,0c3.02538,0.23885 4.55285,0.54673 6.71094,2.73438c1.65147,2.90258 1.32997,4.13073 0.53906,7.32812c-0.20109,0.85723 -0.40219,1.71445 -0.60937,2.59766c-0.49172,1.79596 -1.05179,3.57333 -1.64063,5.33984c0.96938,-0.06188 1.93875,-0.12375 2.9375,-0.1875c5.15579,0 10.49635,1.35195 14.72266,4.375c1.95873,2.64971 2.36068,5.29368 3.02734,8.5c0.25137,1.17949 0.50273,2.35898 0.76172,3.57422c0.18176,0.90363 0.36351,1.80726 0.55078,2.73828c1.09313,-0.0825 2.18625,-0.165 3.3125,-0.25c3.6875,0.25 3.6875,0.25 5.625,1.9375c1.23533,2.68865 1.2824,4.38052 1.0625,7.3125c0,1.32 0,2.64 0,4c0,2 0,4 0,6c-14.73584,-0.55643 -14.73584,-0.55643 -19.5625,-2.625c-3.84271,-1.53708 -5.50611,-1.42337 -9.4375,-0.375c-3.7341,0.87002 -7.22923,1.16327 -11.0625,1.1875c-1.02223,0.01418 -2.04445,0.02836 -3.09766,0.04297c-2.86438,-0.23246 -4.44774,-0.68232 -6.83984,-2.23047c-2.2045,-2.75563 -2.95209,-4.69459 -3.5,-8.1875c0.78001,-5.94754 3.43529,-11.26225 7.21094,-15.92578c0.42539,-0.62262 0.85078,-1.24524 1.28906,-1.88672c-0.66429,-2.89873 -1.55458,-5.24344 -3.0625,-7.80469c-1.22044,-2.85786 -1.23858,-5.22127 -1.25,-8.32031c-0.01676,-1.05445 -0.03352,-2.10891 -0.05078,-3.19531c0.11988,-0.8843 0.23976,-1.7686 0.36328,-2.67969c3,-2 3,-2 6,-2c0,0.66 0,1.32 0,2c1.32,0.33 2.64,0.66 4,1c0.14437,-0.63938 0.28875,-1.27875 0.4375,-1.9375c0.5625,-2.0625 0.5625,-2.0625 1.5625,-3.0625z" fill="#7A5C05" id="svg_3" transform="translate(307,74)"/>
  <path d="m0,0c0.99,0.495 0.99,0.495 2,1c0.33,2.64 0.66,5.28 1,8c-49.17,0 -98.34,0 -149,0c0,0.99 0,1.98 0,3c-0.66,0 -1.32,0 -2,0c-0.27199,0.71414 -0.54398,1.42828 -0.82422,2.16406c-2.83044,6.82692 -6.5527,13.18983 -10.96484,19.10547c-1.85837,2.65567 -3.35021,5.49153 -4.89063,8.33985c-1.39607,2.5278 -2.87831,4.98847 -4.38281,7.45312c-2.55338,4.21604 -4.79967,8.4974 -6.9375,12.9375c-0.66,0 -1.32,0 -2,0c-0.10441,0.7309 -0.20883,1.4618 -0.31641,2.21484c-0.74285,3.0266 -1.82377,4.82087 -3.62109,7.34766c-1.93443,2.74242 -3.63516,5.39665 -5.0625,8.4375c-0.66,0 -1.32,0 -2,0c-0.33,0.99 -0.66,1.98 -1,3c-1.32,0 -2.64,0 -4,0c-0.40219,1.08281 -0.40219,1.08281 -0.8125,2.1875c-2.08762,4.94436 -5.09777,9.25373 -8.1875,13.625c-0.68062,0.97582 -1.36125,1.95164 -2.0625,2.95703c-0.63938,0.73606 -1.27875,1.47211 -1.9375,2.23047c-0.99,0 -1.98,0 -3,0c0.29133,-0.50225 0.58266,-1.0045 0.88281,-1.52197c0.87399,-1.50716 1.74766,-3.0145 2.6211,-4.52198c1.00679,-1.73691 2.01462,-3.47323 3.02343,-5.20898c2.2331,-3.84825 4.4609,-7.6959 6.59766,-11.59863c3.38585,-6.13686 7.00337,-11.78068 11.25,-17.33594c4.83136,-6.32481 8.4824,-12.9544 12.06812,-20.04565c2.71621,-5.3218 5.74165,-10.00619 9.40844,-14.7356c3.51358,-4.95734 6.41909,-10.27157 9.38062,-15.57227c0.66818,-1.18626 0.66818,-1.18626 1.34985,-2.39648c0.59132,-1.06541 0.59132,-1.06541 1.19458,-2.15234c2.03395,-3.17574 3.21285,-4.63427 6.94727,-5.65381c11.05558,-1.4966 21.92561,-1.30494 33.06088,-0.97943c5.93566,0.17109 11.87227,0.2982 17.80899,0.42621c1.24275,0.02728 2.4855,0.05456 3.76591,0.08267c14.60918,0.30348 29.2161,0.33669 43.82784,0.3392c1.88941,0.00347 1.88941,0.00347 3.81699,0.00702c14.36621,0.02375 28.6592,-0.16518 42.99551,-1.13202c0,-0.66 0,-1.32 0,-2z" fill="#E7B923" id="svg_4" transform="translate(293,84)"/>
  <path d="m0,0c2.6755,2.6755 2.83209,4.9488 3.625,8.625c0.39059,1.78277 0.39059,1.78277 0.78906,3.60156c0.19336,0.91524 0.38672,1.83047 0.58594,2.77344c1.09312,-0.0825 2.18625,-0.165 3.3125,-0.25c3.6875,0.25 3.6875,0.25 5.625,1.9375c1.23533,2.68865 1.2824,4.38052 1.0625,7.3125c0,1.32 0,2.64 0,4c0,2 0,4 0,6c-8.12949,-0.30697 -15.47787,-0.59375 -23,-4c-1.32718,-0.35705 -2.65961,-0.69629 -4,-1c0,-0.99 0,-1.98 0,-3c0.99,-0.33 1.98,-0.66 3,-1c-0.02063,-0.84562 -0.04125,-1.69125 -0.0625,-2.5625c0.0625,-3.4375 0.0625,-3.4375 0.625,-7.125c0.68261,-3.30671 0.68261,-3.30671 -0.5625,-6.3125c-5.31619,-2.38312 -11.23827,-3.37372 -17,-4c-0.33,-0.99 -0.66,-1.98 -1,-3c7.42734,-7.06503 18.47358,-8.45941 27,-2z" fill="#6F5208" id="svg_5" transform="translate(329,96)"/>
  <path d="m0,0c0.99,0.495 0.99,0.495 2,1c-0.4264,3.09302 -0.92459,6.06163 -2,9c-2.5625,1.1875 -2.5625,1.1875 -5,2c-0.69496,3.0184 -0.69496,3.0184 -1,6c-1.33225,-0.0174 -1.33225,-0.0174 -2.69141,-0.03516c-12.1242,-0.08564 -24.20084,0.43677 -36.30859,1.03516c4.42545,1.09314 8.76225,1.16129 13.29297,1.16797c0.78724,0.00333 1.57448,0.00666 2.38557,0.01008c1.65655,0.00505 3.3131,0.00741 4.96965,0.00725c2.54127,0.0022 5.08211,0.02042 7.62329,0.03931c1.61133,0.00293 3.22266,0.00492 4.83399,0.00586c0.76145,0.00718 1.5229,0.01437 2.30742,0.02177c4.25467,0.13396 4.25467,0.13396 7.58711,-2.25224c0,0.99 0,1.98 0,3c-4.56082,4.56082 -23.15505,2.06443 -29.32654,2.06787c-7.14122,-0.00612 -14.28232,-0.03428 -21.42346,-0.06787c-5.0993,-0.02373 -10.19858,-0.04401 -15.29792,-0.05594c-2.02132,-0.00643 -4.04255,-0.01892 -6.06384,-0.03171c-1.22608,-0.0033 -2.45215,-0.0066 -3.71539,-0.01001c-1.07457,-0.00523 -2.14915,-0.01047 -3.25629,-0.01587c-2.75926,0.10741 -5.22533,0.52848 -7.91656,1.11353c-2.13028,0.07939 -4.2628,0.10776 -6.39453,0.09766c-1.20205,-0.00323 -2.4041,-0.00645 -3.64258,-0.00977c-1.24588,-0.00838 -2.49176,-0.01676 -3.77539,-0.02539c-1.26521,-0.00451 -2.53043,-0.00902 -3.83398,-0.01367c-3.11789,-0.01177 -6.23568,-0.02821 -9.35352,-0.04883c0,0.33 0,0.66 0,1c-2.31,0 -4.62,0 -7,0c0,-0.33 0,-0.66 0,-1c-14.19,-0.33 -28.38,-0.66 -43,-1c0,-0.66 0,-1.32 0,-2c26.73,0 53.46,0 81,0c0.495,-1.485 0.495,-1.485 1,-3c-25.74,-0.33 -51.48,-0.66 -78,-1c0,-0.33 0,-0.66 0,-1c51.15,-0.33 102.3,-0.66 155,-1c0.99,-2.31 1.98,-4.62 3,-7c1.29116,-2.69028 2.64664,-5.33995 4,-8z" fill="#EAC433" id="svg_6" transform="translate(310,334)"/>
  <path d="m0,0c0.99,0.33 1.98,0.66 3,1c-1.32,2.64 -2.64,5.28 -4,8c-51.15,0 -102.3,0 -155,0c-0.66,-1.32 -1.32,-2.64 -2,-4c1.16814,0.00911 1.16814,0.00911 2.35987,0.01841c18.94532,0.14745 37.89068,0.28918 56.83609,0.42455c9.16183,0.06561 18.32365,0.13314 27.48544,0.20523c7.98502,0.06283 15.97006,0.12203 23.95515,0.17687c4.22836,0.02916 8.4567,0.06015 12.68502,0.09547c3.97993,0.0332 7.95988,0.06155 11.93987,0.08618c1.4605,0.00989 2.921,0.02155 4.38147,0.03512c1.99507,0.01827 3.99019,0.02954 5.98531,0.04046c1.11629,0.0083 2.23258,0.01659 3.3827,0.02514c2.78351,-0.10004 5.28324,-0.47035 7.98908,-1.10743c0.33,-1.65 0.66,-3.3 1,-5z" fill="#FBEC72" id="svg_7" transform="translate(304,341)"/>
  <path d="m0,0c1.98,0.495 1.98,0.495 4,1c0,0.66 0,1.32 0,2c0.99,0.33 1.98,0.66 3,1c1.31641,2.46875 1.31641,2.46875 2.5625,5.5c1.37353,4.00788 1.37353,4.00788 4.4375,6.5c0.59356,2.6486 0.74209,5.29197 1,8c0.99,0.33 1.98,0.66 3,1c-0.33,0.99 -0.66,1.98 -1,3c0.66,0 1.32,0 2,0c0,0.66 0,1.32 0,2c0.66,0 1.32,0 2,0c0,1.65 0,3.3 0,5c1.98,0.33 3.96,0.66 6,1c0.33,0.99 0.66,1.98 1,3c26.4,0 52.8,0 80,0c-0.99,0.495 -0.99,0.495 -2,1c-0.33,1.32 -0.66,2.64 -1,4c-27.06,-0.33 -54.12,-0.66 -82,-1c-2.64,-5.28 -5.28,-10.56 -8,-16c-2.61767,-4.32166 -5.24848,-8.58128 -8,-12.8125c-1.33943,-2.06507 -2.67309,-4.1339 -4,-6.20703c-0.86625,-1.33188 -0.86625,-1.33188 -1.75,-2.69068c-1.25,-2.28979 -1.25,-2.28979 -1.25,-5.28979z" fill="#EAB923" id="svg_8" transform="translate(120,312)"/>
  <path d="m0,0c0.99,0.495 0.99,0.495 2,1c0.33,2.64 0.66,5.28 1,8c-49.17,0 -98.34,0 -149,0c0,0.99 0,1.98 0,3c-0.66,0 -1.32,0 -2,0c-0.66,1.32 -1.32,2.64 -2,4c0.875,-6.875 0.875,-6.875 2,-8c3.04126,-0.24434 6.0581,-0.413 9.10547,-0.53516c1.00105,-0.04173 2.0021,-0.08347 3.03349,-0.12648c9.88515,-0.37059 19.77107,-0.48593 29.66182,-0.58445c0.82809,-0.0084 1.65618,-0.01679 2.50937,-0.02544c7.77715,-0.07777 15.55435,-0.14872 23.3317,-0.20528c4.29949,-0.03169 8.5988,-0.07286 12.89815,-0.12019c1.62552,-0.016 3.25108,-0.02833 4.87665,-0.03691c2.24843,-0.01209 4.49643,-0.03618 6.74473,-0.06311c1.27631,-0.01031 2.55263,-0.02062 3.86763,-0.03124c3.08884,0.03692 3.08884,0.03692 4.97099,-2.27174c2.02481,-0.31644 2.02481,-0.31644 4.5415,-0.41064c1.41124,-0.05984 1.41124,-0.05984 2.85099,-0.12088c1.01774,-0.03343 2.03549,-0.06685 3.08407,-0.10129c1.04039,-0.04156 2.08077,-0.08313 3.15268,-0.12595c3.33165,-0.13103 6.66361,-0.24878 9.99576,-0.36624c2.25524,-0.08637 4.51045,-0.1736 6.76562,-0.26172c5.53612,-0.21444 11.07256,-0.41796 16.60938,-0.61328c0,-0.66 0,-1.32 0,-2z" fill="#E6BC29" id="svg_9" transform="translate(293,84)"/>
  <path d="m0,0c0.33,0 0.66,0 1,0c0.875,2.4375 0.875,2.4375 1,6c-1.14409,2.25067 -2.55118,4.18001 -4.03516,6.22266c-2.44051,3.44971 -4.60923,7.02737 -6.77734,10.65234c-0.39687,0.65476 -0.79374,1.30953 -1.20264,1.98413c-1.61419,2.69137 -2.98909,5.15356 -3.98486,8.14087c1.65,0 3.3,0 5,0c-0.59555,0.25523 -1.19109,0.51047 -1.80469,0.77344c-2.41015,1.34659 -3.62408,2.69352 -5.32031,4.85156c-1.50781,1.91406 -1.50781,1.91406 -2.875,3.375c-0.66,0 -1.32,0 -2,0c-0.495,0.99 -0.495,0.99 -1,2c-5.01708,0.04961 -10.03401,0.08582 -15.05127,0.10986c-1.7051,0.01003 -3.41019,0.02366 -5.11523,0.04102c-2.45757,0.02439 -4.9149,0.03564 -7.37256,0.04443c-0.75649,0.01033 -1.51298,0.02065 -2.29239,0.03128c-4.44678,0.00094 -8.03765,-0.57537 -12.16855,-2.22659c0,-0.33 0,-0.66 0,-1c4.58981,-0.1436 9.17965,-0.28597 13.76953,-0.42725c1.55958,-0.04817 3.11915,-0.09667 4.67871,-0.1455c2.249,-0.07037 4.49803,-0.13955 6.74707,-0.2085c0.69087,-0.02187 1.38174,-0.04375 2.09354,-0.06628c3.90535,-0.11843 7.80407,-0.17373 11.71115,-0.15247c0.22687,-0.78375 0.45375,-1.5675 0.6875,-2.375c1.3125,-2.625 1.3125,-2.625 3.9375,-3.9375c0.78375,-0.22687 1.5675,-0.45375 2.375,-0.6875c0.33,-2.97 0.66,-5.94 1,-9c0.99,-0.33 1.98,-0.66 3,-1c0,-0.99 0,-1.98 0,-3c0.61875,-0.06188 1.2375,-0.12375 1.875,-0.1875c0.70125,-0.26813 1.4025,-0.53625 2.125,-0.8125c0.72207,-1.64342 1.37933,-3.31566 2,-5c0.81225,-1.75988 1.6457,-3.51014 2.5,-5.25c0.42281,-0.87141 0.84563,-1.74281 1.28125,-2.64062c1.21875,-2.10938 1.21875,-2.10938 3.21875,-3.10938c0.33,-0.99 0.66,-1.98 1,-3z" fill="#E9B921" id="svg_10" transform="translate(328,311)"/>
  <path d="m0,0c7.22971,0.62325 12.27392,1.89253 17.375,7.375c1.99444,2.44631 2.5905,3.35473 3,6.5625c-0.12375,0.68062 -0.2475,1.36125 -0.375,2.0625c-6.14539,2.04846 -11.4531,2.92528 -17.875,1.25c-2.61944,-1.54085 -3.25981,-2.3398 -4.125,-5.25c-0.33218,-4.56744 -0.00216,-7.87055 2,-12z" fill="#FAD905" id="svg_11" transform="translate(296,109)"/>
  <path d="m0,0c0.66,0.33 1.32,0.66 2,1c0,0.66 0,1.32 0,2c0.94875,-0.0825 1.8975,-0.165 2.875,-0.25c5.05846,-0.01034 9.7256,1.84521 14.125,4.25c2.55695,3.83542 2.04046,5.65903 1.625,10.1875c-0.16629,1.90846 -0.16629,1.90846 -0.33594,3.85547c-0.09539,0.97582 -0.19078,1.95164 -0.28906,2.95703c-4.27918,-0.48778 -6.05613,-1.59619 -8.8125,-4.875c-0.60457,-0.69867 -1.20914,-1.39734 -1.83203,-2.11719c-1.35547,-2.00781 -1.35547,-2.00781 -1.35547,-5.00781c-0.68063,-0.10313 -1.36125,-0.20625 -2.0625,-0.3125c-3.56666,-0.83475 -6.59972,-2.18223 -9.9375,-3.6875c1.32,-0.33 2.64,-0.66 4,-1c-0.18562,-0.59812 -0.37125,-1.19625 -0.5625,-1.8125c-0.4375,-2.1875 -0.4375,-2.1875 0.5625,-5.1875z" fill="#6E4903" id="svg_12" transform="translate(301,98)"/>
  <path d="m0,0c40.26,0 80.52,0 122,0c0,0.66 0,1.32 0,2c-1.18553,-0.00524 -2.37107,-0.01047 -3.59253,-0.01587c-4.40754,-0.01813 -8.81508,-0.02959 -13.22266,-0.03906c-1.90593,-0.00502 -3.81185,-0.01184 -5.71777,-0.02051c-2.74293,-0.01216 -5.48581,-0.01781 -8.22876,-0.02222c-0.84914,-0.00516 -1.69829,-0.01032 -2.57316,-0.01564c-4.05903,-0.00038 -7.68605,0.25658 -11.66512,1.1133c-2.13028,0.07939 -4.2628,0.10776 -6.39453,0.09766c-1.20205,-0.00323 -2.4041,-0.00645 -3.64258,-0.00977c-1.24588,-0.00838 -2.49176,-0.01676 -3.77539,-0.02539c-1.26521,-0.00451 -2.53043,-0.00902 -3.83398,-0.01367c-3.11789,-0.01177 -6.23568,-0.02821 -9.35352,-0.04883c0,0.33 0,0.66 0,1c-2.31,0 -4.62,0 -7,0c0,-0.33 0,-0.66 0,-1c-14.19,-0.33 -28.38,-0.66 -43,-1c0,-0.66 0,-1.32 0,-2z" fill="#F9D443" id="svg_13" transform="translate(144,355)"/>
  <path d="m0,0c6.56165,0.92093 10.79368,4.16471 15.5625,8.5c2.31283,3.46924 2.42479,4.92206 2,9c-1.5,1.875 -1.5,1.875 -3,3c-0.89719,-1.42312 -0.89719,-1.42312 -1.8125,-2.875c-2.00313,-3.26464 -2.00313,-3.26464 -5.1875,-5.125c0,-0.66 0,-1.32 0,-2c-0.9784,-0.29004 -0.9784,-0.29004 -1.97656,-0.58594c-4.70058,-1.40046 -9.38185,-2.82615 -14.02344,-4.41406c2.72792,-3.30657 4.11681,-4.87154 8.4375,-5.5z" fill="#F5D31D" id="svg_14" transform="translate(312.4375,94.5)"/>
  <path d="m0,0c0.99,0.495 0.99,0.495 2,1c-0.4264,3.09302 -0.92459,6.06163 -2,9c-2.5625,1.1875 -2.5625,1.1875 -5,2c-0.33,1.98 -0.66,3.96 -1,6c-51.48,-0.33 -102.96,-0.66 -156,-1c0,-0.33 0,-0.66 0,-1c51.15,-0.33 102.3,-0.66 155,-1c0.99,-2.31 1.98,-4.62 3,-7c1.29116,-2.69028 2.64664,-5.33995 4,-8z" fill="#E1BE36" id="svg_15" transform="translate(310,334)"/>
  <path d="m0,0c-0.75,4.75 -0.75,4.75 -3,7c-0.99,0 -1.98,0 -3,0c0,0.66 0,1.32 0,2c1.65,0.66 3.3,1.32 5,2c0,0.66 0,1.32 0,2c-4.34135,2.17067 -10.79779,0.7127 -15.28125,-0.73828c-1.60101,-0.69224 -3.1656,-1.46789 -4.71875,-2.26172c1.33333,-1.33333 2.66667,-2.66667 4,-4c1.14469,-1.29937 1.14469,-1.29937 2.3125,-2.625c4.45757,-3.93924 8.96729,-5.1084 14.6875,-3.375z" fill="#EBF2A8" id="svg_16" transform="translate(342,114)"/>
  <path d="m0,0c1.65,0 3.3,0 5,0c0.97603,7.15759 -2.09129,13.09212 -6,19c-2.20313,1.35547 -2.20313,1.35547 -4,2c-5.8312,-10.35038 -5.8312,-10.35038 -5,-17c0.33,-0.66 0.66,-1.32 1,-2c1.32,0 2.64,0 4,0c0.66,2.31 1.32,4.62 2,7c0.99,0 1.98,0 3,0c0,-2.97 0,-5.94 0,-9z" fill="#EBF4AC" id="svg_17" transform="translate(307,77)"/>
  <path d="m0,0c2,2 2,2 2,5c-49.17,0 -98.34,0 -149,0c0,0.99 0,1.98 0,3c-0.66,0 -1.32,0 -2,0c-0.66,1.32 -1.32,2.64 -2,4c0.875,-6.875 0.875,-6.875 2,-8c1.9106,-0.10883 3.82524,-0.14689 5.73891,-0.15822c1.24667,-0.00979 2.49334,-0.01958 3.77778,-0.02966c1.39426,-0.00591 2.78852,-0.01172 4.18277,-0.01744c1.45826,-0.00958 2.91652,-0.01959 4.37477,-0.03c3.97087,-0.02712 7.94176,-0.04809 11.91267,-0.068c4.14537,-0.02182 8.29071,-0.04923 12.43606,-0.07606c7.85521,-0.04998 15.71043,-0.0949 23.56568,-0.13802c8.94063,-0.04933 17.88122,-0.10426 26.82181,-0.15968c18.39648,-0.11391 36.793,-0.22073 55.18955,-0.32292c0.33,-0.99 0.66,-1.98 1,-3z" fill="#DABD3A" id="svg_18" transform="translate(294,88)"/>
  <path d="m0,0c49.5,0 99,0 150,0c0,0.33 0,0.66 0,1c-0.75391,0.00147 -1.50782,0.00293 -2.28458,0.00444c-18.33592,0.03704 -36.67166,0.09601 -55.00743,0.17946c-8.86702,0.03983 -17.73396,0.0722 -26.60106,0.0871c-7.72768,0.01299 -15.45516,0.03991 -23.18273,0.08361c-4.09255,0.02266 -8.18486,0.0383 -12.27748,0.03727c-3.85132,-0.00074 -7.7021,0.01711 -11.55328,0.04929c-1.41412,0.00852 -2.8283,0.01023 -4.24243,0.00463c-1.92979,-0.00662 -3.85962,0.01361 -5.7893,0.03522c-1.62052,0.00553 -1.62052,0.00553 -3.27377,0.01117c-3.42158,0.62322 -4.61164,1.86646 -6.78794,4.50781c-0.66,-0.33 -1.32,-0.66 -2,-1c0.33,-0.66 0.66,-1.32 1,-2c0.66,0 1.32,0 2,0c0,-0.99 0,-1.98 0,-3z" fill="#FEEF75" id="svg_19" transform="translate(147,93)"/>
  <path d="m0,0c0.33,0 0.66,0 1,0c-0.44529,5.27315 -1.08373,10.0177 -3,15c-0.99,0 -1.98,0 -3,0c-0.26813,0.72188 -0.53625,1.44375 -0.8125,2.1875c-2.08762,4.94436 -5.09777,9.25373 -8.1875,13.625c-0.68062,0.97582 -1.36125,1.95164 -2.0625,2.95703c-0.63938,0.73606 -1.27875,1.47211 -1.9375,2.23047c-0.99,0 -1.98,0 -3,0c0.29133,-0.50225 0.58266,-1.0045 0.88281,-1.52197c1.37285,-2.36741 2.74513,-4.73516 4.11719,-7.10303c0.74625,-1.28777 0.74625,-1.28777 1.50757,-2.60156c3.67384,-6.34557 7.31625,-12.70816 10.93384,-19.08594c1.12193,-1.93456 2.31809,-3.82675 3.55859,-5.6875z" fill="#F3B318" id="svg_20" transform="translate(104,152)"/>
  <path d="m0,0c7.22971,0.62325 12.27392,1.89253 17.375,7.375c1.99444,2.44631 2.5905,3.35473 3,6.5625c-0.12375,0.68062 -0.2475,1.36125 -0.375,2.0625c-6.11205,2.03735 -11.70132,3.09956 -18,1c0,-0.66 0,-1.32 0,-2c0.83145,0.0116 1.66289,0.0232 2.51953,0.03516c1.63002,0.01353 1.63002,0.01353 3.29297,0.02734c1.61842,0.0174 1.61842,0.0174 3.26953,0.03516c2.98309,0.03859 2.98309,0.03859 5.91797,-1.09766c-1.26947,-4.82442 -1.26947,-4.82442 -5,-8c0,-0.66 0,-1.32 0,-2c-0.88687,-0.14437 -1.77375,-0.28875 -2.6875,-0.4375c-2.77957,-0.472 -5.54789,-1.00958 -8.3125,-1.5625c0,4.29 0,8.58 0,13c-3,-3 -3,-3 -3.3125,-6.375c0.28828,-3.34405 0.86087,-5.63101 2.3125,-8.625z" fill="#F0D033" id="svg_22" transform="translate(296,109)"/>
  <path d="m0,0c3.55839,0.8896 5.68879,1.70517 8.375,4.25c1.91933,3.2481 1.86195,5.03774 1.625,8.75c0.20643,2.25328 0.20643,2.25328 1,4c0.99,0.33 1.98,0.66 3,1c0.7308,1.97747 1.39422,3.98072 2,6c0.66,0.99 1.32,1.98 2,3c0,1.32 0,2.64 0,4c0.66,0 1.32,0 2,0c0,0.99 0,1.98 0,3c0.66,0 1.32,0 2,0c0.33,1.65 0.66,3.3 1,5c-0.66,-0.33 -1.32,-0.66 -2,-1c0,-0.66 0,-1.32 0,-2c-0.66,0 -1.32,0 -2,0c0,-1.32 0,-2.64 0,-4c-0.66,0 -1.32,0 -2,0c-1.33333,-3.33333 -2.66667,-6.66667 -4,-10c-0.66,0 -1.32,0 -2,0c-3,-5.75 -3,-5.75 -3,-8c-0.66,0 -1.32,0 -2,0c-2,-4.66667 -4,-9.33333 -6,-14z" fill="#E4C63E" id="svg_23" transform="translate(323,126)"/>
  <path d="m0,0c3.03073,0.23927 4.55372,0.54557 6.71094,2.74219c1.64101,2.87425 1.33859,4.03134 0.53906,7.19531c-0.20109,0.83402 -0.40219,1.66805 -0.60937,2.52734c-0.21141,0.83661 -0.42282,1.67321 -0.64063,2.53516c-0.34177,1.66496 -0.67758,3.33119 -1,5c-1.65,0 -3.3,0 -5,0c2,-5 2,-5 3.0625,-7.375c1.13628,-3.18158 1.54372,-6.27789 1.9375,-9.625c-1.65,0 -3.3,0 -5,0c0,2.97 0,5.94 0,9c-0.99,0 -1.98,0 -3,0c-1.46063,-2.64739 -2,-3.89448 -2,-7c-2.31,0 -4.62,0 -7,0c1.3125,-1.5 1.3125,-1.5 3,-3c0.99,0 1.98,0 3,0c0,0.66 0,1.32 0,2c1.32,0.33 2.64,0.66 4,1c0.14437,-0.63938 0.28875,-1.27875 0.4375,-1.9375c0.5625,-2.0625 0.5625,-2.0625 1.5625,-3.0625z" fill="#756D24" id="svg_24" transform="translate(307,74)"/>
  <path d="m0,0c19.8,0.495 19.8,0.495 40,1c-0.33,0.66 -0.66,1.32 -1,2c-12.54,0 -25.08,0 -38,0c-0.33,-0.99 -0.66,-1.98 -1,-3z" fill="#F3B517" id="svg_27" transform="translate(206,87)"/>
  <path d="m0,0c0.66,0 1.32,0 2,0c-0.66,1.98 -1.32,3.96 -2,6c-0.66,0 -1.32,0 -2,0c0,1.32 0,2.64 0,4c-0.66,0 -1.32,0 -2,0c0,1.32 0,2.64 0,4c-0.66,0 -1.32,0 -2,0c-0.2475,0.68062 -0.495,1.36125 -0.75,2.0625c-3.17022,7.45003 -7.8814,14.15144 -12.25,20.9375c-0.33,-1.32 -0.66,-2.64 -1,-4c0.66,0 1.32,0 2,0c0.10312,-0.68062 0.20625,-1.36125 0.3125,-2.0625c1.1194,-4.78291 2.58579,-9.9058 6.6875,-12.9375c0.66,0 1.32,0 2,0c0.33,-1.65 0.66,-3.3 1,-5c0.99,0 1.98,0 3,0c0,-1.65 0,-3.3 0,-5c0.66,0 1.32,0 2,0c0,-0.99 0,-1.98 0,-3c0.66,0 1.32,0 2,0c0.33,-1.65 0.66,-3.3 1,-5z" fill="#FEF37C" id="svg_28" transform="translate(360,248)"/>
  <path d="m0,0c0.66,0.33 1.32,0.66 2,1c0,5 0,10 0,15c-15.74487,-0.59453 -15.74487,-0.59453 -23,-4c0.66,-0.66 1.32,-1.32 2,-2c0.62906,0.21656 1.25812,0.43313 1.90625,0.65625c5.60821,1.82436 10.20344,2.67099 16.09375,2.34375c0,-0.66 0,-1.32 0,-2c-1.65,-0.66 -3.3,-1.32 -5,-2c0,-0.66 0,-1.32 0,-2c0.80438,-0.45375 1.60875,-0.9075 2.4375,-1.375c2.71486,-1.35921 2.71486,-1.35921 3.375,-3.8125c0.09281,-0.89719 0.09281,-0.89719 0.1875,-1.8125z" fill="#7F6C16" id="svg_29" transform="translate(342,114)"/>
  <path d="m0,0c-0.99,0.33 -1.98,0.66 -3,1c0,1.32 0,2.64 0,4c-0.55688,-0.28875 -1.11375,-0.5775 -1.6875,-0.875c-0.76312,-0.37125 -1.52625,-0.7425 -2.3125,-1.125c-0.76313,-0.37125 -1.52625,-0.7425 -2.3125,-1.125c-3.41625,-1.11227 -6.11402,-1.19986 -9.6875,-0.875c-2.40083,1.35885 -2.40083,1.35885 -4,3c0.66,0.66 1.32,1.32 2,2c-1.32,0 -2.64,0 -4,0c-0.33,-0.99 -0.66,-1.98 -1,-3c7.30304,-6.94679 17.06501,-7.94147 26,-3z" fill="#795E07" id="svg_30" transform="translate(328,95)"/>
  <path d="m0,0c1.32,0.33 2.64,0.66 4,1c-1.69873,4.5874 -4.06126,8.47374 -6.66016,12.59766c-1.22013,2.1877 -1.88249,3.95747 -2.33984,6.40234c-1.32,0 -2.64,0 -4,0c0.3125,-2.375 0.3125,-2.375 1,-5c0.99,-0.66 1.98,-1.32 3,-2c0.25031,-2.5838 0.25031,-2.5838 0,-5c0.66,0 1.32,0 2,0c0.33,-1.65 0.66,-3.3 1,-5c0.66,0 1.32,0 2,0c0,-0.99 0,-1.98 0,-3z" fill="#E8B723" id="svg_31" transform="translate(362,251)"/>
  <path d="m0,0c0.66,0.33 1.32,0.66 2,1c-0.875,4.75 -0.875,4.75 -2,7c-0.07034,1.8738 -0.0843,3.75001 -0.0625,5.625c0.01354,1.50434 0.01354,1.50434 0.02734,3.03906c0.01161,0.77086 0.02321,1.54172 0.03516,2.33594c-0.66,0 -1.32,0 -2,0c-1.65,-3.63 -3.3,-7.26 -5,-11c0.66,0 1.32,0 2,0c0.0825,-0.76312 0.165,-1.52625 0.25,-2.3125c0.89616,-3.21123 1.96611,-3.98124 4.75,-5.6875z" fill="#E9B726" id="svg_32" transform="translate(72,212)"/>
  <path d="m0,0c8.92308,1.20118 8.92308,1.20118 11,2c0.33,0.99 0.66,1.98 1,3c-1.65,-0.33 -3.3,-0.66 -5,-1c-0.33,0.99 -0.66,1.98 -1,3c-0.66,0 -1.32,0 -2,0c0,0.66 0,1.32 0,2c-0.99,0 -1.98,0 -3,0c0.33,1.32 0.66,2.64 1,4c-0.99,0 -1.98,0 -3,0c-0.07655,-4.51618 -0.10229,-8.59085 1,-13z" fill="#F7D70F" id="svg_33" transform="translate(297,111)"/>
  <path d="m0,0c2,3 2,3 2,5c0.66,0 1.32,0 2,0c0.66,1.65 1.32,3.3 2,5c0.66,-0.99 1.32,-1.98 2,-3c0.99,4.29 1.98,8.58 3,13c0.66,0 1.32,0 2,0c0.33,0.99 0.66,1.98 1,3c0.99,0.33 1.98,0.66 3,1c0,2.31 0,4.62 0,7c-2.32472,-2.85307 -3.75083,-5.54075 -5,-9c-0.66,0 -1.32,0 -2,0c-0.29133,-0.60586 -0.58266,-1.21172 -0.88281,-1.83594c-2.73625,-5.59296 -5.71213,-10.89313 -9.07813,-16.13281c-0.51433,-1.00547 -0.51433,-1.00547 -1.03906,-2.03125c0.33,-0.66 0.66,-1.32 1,-2z" fill="#FDF37A" id="svg_34" transform="translate(95,258)"/>
  <path d="m0,0c9.9,0 19.8,0 30,0c0,0.66 0,1.32 0,2c-15.345,0.495 -15.345,0.495 -31,1c0.33,-0.99 0.66,-1.98 1,-3z" fill="#E5B714" id="svg_35" transform="translate(170,87)"/>
  <path d="m0,0c0.33,0 0.66,0 1,0c0.36667,5.5 0.36667,5.5 -1.375,7.875c-1.625,1.125 -1.625,1.125 -3.625,1.125c-0.28875,0.94875 -0.5775,1.8975 -0.875,2.875c-1.125,3.125 -1.125,3.125 -3.125,5.125c-0.69658,1.65439 -1.36097,3.32254 -2,5c-0.65214,1.3405 -1.3138,2.67661 -2,4c-0.66,0 -1.32,0 -2,0c1.39413,-5.96464 3.8603,-10.70317 7,-15.9375c0.45117,-0.77924 0.90234,-1.55848 1.36719,-2.36133c2.51711,-4.24856 2.51711,-4.24856 3.63281,-5.70117c0.66,0 1.32,0 2,0c0,-0.66 0,-1.32 0,-2z" fill="#F8EA6F" id="svg_36" transform="translate(106,162)"/>
  <path d="m0,0c0,5.41715 -1.12155,11.54549 -4.46484,15.91406c-1.4726,1.40419 -3.00182,2.74835 -4.53516,4.08594c-1.3562,2.19923 -1.3562,2.19923 -2,4c-0.66,0 -1.32,0 -2,0c2.94377,-7.85006 7.03388,-18.03388 13,-24z" fill="#FCF37F" id="svg_37" transform="translate(130,122)"/>
  <path d="m0,0c0.33,0.66 0.66,1.32 1,2c1.65,0 3.3,0 5,0c-0.88945,0.38285 -0.88945,0.38285 -1.79687,0.77344c-2.41538,1.34472 -3.71525,2.7187 -5.45313,4.85156c-0.52078,0.63164 -1.04156,1.26328 -1.57813,1.91406c-0.38671,0.48211 -0.77343,0.96422 -1.17187,1.46094c-1.32,-0.33 -2.64,-0.66 -4,-1c0,-1.98 0,-3.96 0,-6c2.66667,-1.33333 5.33333,-2.66667 8,-4z" fill="#E8BA22" id="svg_38" transform="translate(313,342)"/>
  <path d="m0,0c3.39547,3.04421 5.05959,5.89528 7,10c1.05339,1.96325 2.11658,3.92126 3.1875,5.875c0.5298,0.9668 1.05961,1.93359 1.60547,2.92969c0.39832,0.72445 0.79664,1.4489 1.20703,2.19531c-1.66667,0 -3.33333,0 -5,0c0,-0.99 0,-1.98 0,-3c-0.66,0 -1.32,0 -2,0c0,-1.32 0,-2.64 0,-4c-0.66,0 -1.32,0 -2,0c-0.33,-2.64 -0.66,-5.28 -1,-8c-0.99,-0.33 -1.98,-0.66 -3,-1c0,-1.65 0,-3.3 0,-5z" fill="#E4BD36" id="svg_39" transform="translate(83,242)"/>
  <path d="m0,0c0.26813,0.55688 0.53625,1.11375 0.8125,1.6875c1.1945,2.40183 1.1945,2.40183 2.8125,4.9375c1.375,2.375 1.375,2.375 1.375,4.375c6.73385,1.68346 13.24895,1.12518 20,0c0.33,-1.32 0.66,-2.64 1,-4c0,1.65 0,3.3 0,5c-6.49636,2.36231 -14.65658,3.69371 -21.25391,1.12109c-2.58972,-1.66275 -3.50029,-3.31804 -4.74609,-6.12109c-0.1875,-3.8125 -0.1875,-3.8125 0,-7z" fill="#846D0C" id="svg_40" transform="translate(291,114)"/>
  <path d="m0,0c0.33,1.65 0.66,3.3 1,5c0.77086,-0.08379 1.54172,-0.16758 2.33594,-0.25391c1.00289,-0.10183 2.00578,-0.20367 3.03906,-0.30859c1.4966,-0.15662 1.4966,-0.15662 3.02344,-0.31641c2.60156,-0.12109 2.60156,-0.12109 4.60156,0.87891c0,0.66 0,1.32 0,2c-4.34135,2.17067 -10.79779,0.7127 -15.28125,-0.73828c-1.60101,-0.69224 -3.1656,-1.46789 -4.71875,-2.26172c3.75,-4 3.75,-4 6,-4z" fill="#E7E79B" id="svg_41" transform="translate(327,120)"/>
  <path d="m0,0c0.98484,0.00902 1.96969,0.01805 2.98438,0.02734c1.12148,0.01741 1.12148,0.01741 2.26562,0.03516c0,0.99 0,1.98 0,3c-5.28,0 -10.56,0 -16,0c1,-2 1,-2 2.70312,-2.62109c2.71853,-0.44847 5.29245,-0.4742 8.04688,-0.44141zm-11.75,3.0625c0.33,0 0.66,0 1,0c0,1.98 0,3.96 0,6c-1.32,-0.33 -2.64,-0.66 -4,-1c0.96885,-1.68496 1.96987,-3.35179 3,-5z" fill="#EEB51A" id="svg_42" transform="translate(154.75,86.9375)"/>
  <path d="m0,0c3.56581,0.89145 5.71416,1.73615 8.4375,4.25c1.5625,2.75 1.5625,2.75 1.3125,6.0625c-0.2475,0.88687 -0.495,1.77375 -0.75,2.6875c-3.45784,-1.15261 -3.80618,-1.80532 -5.625,-4.8125c-0.63809,-1.03061 -0.63809,-1.03061 -1.28906,-2.08203c-1.05388,-2.04332 -1.63187,-3.86033 -2.08594,-6.10547z" fill="#E2BA31" id="svg_43" transform="translate(323,126)"/>
  <path d="m0,0c0,5.78254 -1.5369,11.29459 -5,16c-2.13672,0.73438 -2.13672,0.73438 -4,1c0,0.99 0,1.98 0,3c-0.66,0 -1.32,0 -2,0c0.33,-1.32 0.66,-2.64 1,-4c0.66,0 1.32,0 2,0c0.10313,-0.71672 0.20625,-1.43344 0.3125,-2.17187c0.76553,-3.1491 1.97835,-5.33363 3.6875,-8.07813c0.53625,-0.87141 1.0725,-1.74281 1.625,-2.64062c1.375,-2.10938 1.375,-2.10938 2.375,-3.10938z" fill="#EAC239" id="svg_44" transform="translate(323,314)"/>
  <path d="m0,0c1.19577,3.58731 0.4418,4.88715 -1.10547,8.21484c-1.18412,2.36307 -2.38166,4.61453 -3.89453,6.78516c-0.66,0 -1.32,0 -2,0c0,1.65 0,3.3 0,5c-1.98,0.33 -3.96,0.66 -6,1c0.4357,-0.67805 0.87141,-1.35609 1.32031,-2.05469c4.00145,-6.25334 7.89684,-12.55741 11.67969,-18.94531z" fill="#F2B81B" id="svg_45" transform="translate(138,98)"/>
  <path d="m0,0c0.66,0 1.32,0 2,0c-0.0825,1.27875 -0.165,2.5575 -0.25,3.875c-0.04639,4.9016 1.39984,8.42469 3.57031,12.76563c0.88938,3.08727 0.10164,4.55524 -1.32031,7.35937c-0.66,-0.66 -1.32,-1.32 -2,-2c0.33,-0.99 0.66,-1.98 1,-3c-0.763,-1.82964 -0.763,-1.82964 -1.9375,-3.6875c-2.34482,-4.38238 -2.48014,-7.38434 -2.0625,-12.3125c0.33,-0.99 0.66,-1.98 1,-3z" fill="#6F5F0F" id="svg_46" transform="translate(296,79)"/>
  <path d="m0,0c0,0.66 0,1.32 0,2c-0.66,0 -1.32,0 -2,0c0,0.66 0,1.32 0,2c0.66,0.33 1.32,0.66 2,1c-1,1 -1,1 -3.06641,1.09766c-0.82371,-0.01161 -1.64742,-0.02321 -2.49609,-0.03516c-0.82629,-0.00902 -1.65258,-0.01805 -2.50391,-0.02734c-0.63808,-0.01161 -1.27617,-0.02321 -1.93359,-0.03516c-0.33,-1.65 -0.66,-3.3 -1,-5c3.67411,-1.17571 7.16929,-1.07367 11,-1z" fill="#E2FBAF" id="svg_47" transform="translate(338,119)"/>
  <path d="m0,0c2.88537,1.44269 3.62892,3.51742 5.1875,6.3125c0.55043,0.96551 1.10086,1.93102 1.66797,2.92578c1.14453,2.76172 1.14453,2.76172 0.94922,4.91406c-1.24485,2.85832 -3.0147,5.30703 -4.80469,7.84766c-0.93424,-3.01032 -1.0445,-3.8665 0,-7c0.4008,-5.31067 -0.41995,-8.37741 -3,-13c0,-0.66 0,-1.32 0,-2z" fill="#FCEE74" id="svg_48" transform="translate(371,208)"/>
  <path d="m0,0c1.33333,0.66667 2.66667,1.33333 4,2c1.08281,0.37125 1.08281,0.37125 2.1875,0.75c1.8125,1.25 1.8125,1.25 2.4375,4.3125c0.12375,0.96937 0.2475,1.93875 0.375,2.9375c0.66,0.33 1.32,0.66 2,1c0.59356,2.6486 0.74209,5.29197 1,8c-4.1843,-4.78206 -6.99765,-9.99294 -9,-16c-0.66,0 -1.32,0 -2,0c-0.33,-0.99 -0.66,-1.98 -1,-3z" fill="#FBF279" id="svg_49" transform="translate(128,317)"/>
  <path d="m0,0c2.97247,2.54783 4.41535,5.45341 6,9c0,0.66 0,1.32 0,2c0.66,0 1.32,0 2,0c1.32422,1.60938 1.32422,1.60938 2.6875,3.75c0.45762,0.69609 0.91523,1.39219 1.38672,2.10938c1.09484,2.53153 0.86932,3.60163 -0.07422,6.14062c-0.15469,-0.95906 -0.15469,-0.95906 -0.3125,-1.9375c-0.22687,-0.68062 -0.45375,-1.36125 -0.6875,-2.0625c-0.99,-0.33 -1.98,-0.66 -3,-1c-1.31641,-2.46875 -1.31641,-2.46875 -2.5625,-5.5c-1.37353,-4.00788 -1.37353,-4.00788 -4.4375,-6.5c-0.625,-3.0625 -0.625,-3.0625 -1,-6z" fill="#E6C13A" id="svg_50" transform="translate(123,309)"/>
  <path d="m0,0c0.33,0.66 0.66,1.32 1,2c0.66,0.33 1.32,0.66 2,1c-0.33,0.61875 -0.66,1.2375 -1,1.875c-1.14193,2.03518 -1.14193,2.03518 -1,4.125c-0.66,0 -1.32,0 -2,0c-0.33,-0.66 -0.66,-1.32 -1,-2c-0.33,0.99 -0.66,1.98 -1,3c0,-0.66 0,-1.32 0,-2c-0.66,0 -1.32,0 -2,0c-0.33,1.65 -0.66,3.3 -1,5c-0.66,0 -1.32,0 -2,0c0.89309,-4.64407 2.55748,-8.76355 6.1875,-11.875c0.59813,-0.37125 1.19625,-0.7425 1.8125,-1.125z" fill="#E1B227" id="svg_51" transform="translate(330,307)"/>
  <path d="m0,0c2.0625,1.6875 2.0625,1.6875 4,4c-0.25,2.75 -0.25,2.75 -1,5c-0.99,-0.99 -1.98,-1.98 -3,-3c-2.03242,0.6398 -2.03242,0.6398 -4,2c-0.81171,2.5552 -0.81171,2.5552 -1,5c-0.99,0 -1.98,0 -3,0c1.59043,-5.08939 4.7447,-8.87457 8,-13z" fill="#E9C841" id="svg_52" transform="translate(72,207)"/>
  <path d="m0,0c0.66,0.33 1.32,0.66 2,1c-0.33,3.63 -0.66,7.26 -1,11c-1.32,0.33 -2.64,0.66 -4,1c0,-2.64 0,-5.28 0,-8c-1.32,-0.33 -2.64,-0.66 -4,-1c0,-0.33 0,-0.66 0,-1c1.45406,-0.46406 1.45406,-0.46406 2.9375,-0.9375c2.90316,-0.75773 2.90316,-0.75773 4.0625,-2.0625z" fill="#67460C" id="svg_53" transform="translate(320,109)"/>
  <path d="m0,0c0.99,0 1.98,0 3,0c0,0.99 0,1.98 0,3c0.66,0 1.32,0 2,0c0,0.99 0,1.98 0,3c0.66,0 1.32,0 2,0c0,1.65 0,3.3 0,5c0.99,0 1.98,0 3,0c0.33,2.64 0.66,5.28 1,8c-3.12684,-2.69555 -4.70196,-5.21743 -6.20703,-9.05078c-1.39017,-3.41722 -3.1209,-6.66273 -4.79297,-9.94922z" fill="#E0BB31" id="svg_54" transform="translate(346,165)"/>
  <path d="m0,0c0.33,0.66 0.66,1.32 1,2c0.99,-0.33 1.98,-0.66 3,-1c-0.60407,3.38276 -1.85743,5.34321 -4,8c-0.99,1.485 -0.99,1.485 -2,3c-0.99,0.33 -1.98,0.66 -3,1c-0.33,-0.99 -0.66,-1.98 -1,-3c0.45375,-0.37125 0.9075,-0.7425 1.375,-1.125c2.09329,-2.41534 2.70231,-4.84329 3.625,-7.875c0.33,-0.33 0.66,-0.66 1,-1z" fill="#E4BA24" id="svg_55" transform="translate(346,278)"/>
  <path d="m0,0c1.95313,0.83594 1.95313,0.83594 4,2c0.75,2.625 0.75,2.625 1,5c0.66,0 1.32,0 2,0c1.46063,2.64739 2,3.89448 2,7c0.66,0 1.32,0 2,0c0.33,1.65 0.66,3.3 1,5c0.99,0.33 1.98,0.66 3,1c-0.66,0.99 -1.32,1.98 -2,3c-4.38023,-7.64096 -8.75382,-15.28338 -13,-23z" fill="#E0BC36" id="svg_56" transform="translate(365,197)"/>
  <path d="m0,0c0.99,0.33 1.98,0.66 3,1c-1.61897,3.30082 -3.35924,6.52557 -5.125,9.75c-0.53883,0.98484 -1.07766,1.96969 -1.63281,2.98438c-0.40992,0.74765 -0.81985,1.49531 -1.24219,2.26562c-1.32015,-3.96044 -0.27727,-6.09722 1,-10c0.33,-0.66 0.66,-1.32 1,-2c0.66,0 1.32,0 2,0c0.33,-1.32 0.66,-2.64 1,-4z" fill="#E7BB31" id="svg_57" transform="translate(128,119)"/>
  <path d="m0,0c2.64,0.33 5.28,0.66 8,1c0,0.33 0,0.66 0,1c-2.31,0 -4.62,0 -7,0c0,4.29 0,8.58 0,13c-3,-3 -3,-3 -3.3125,-6.375c0.28828,-3.34405 0.86087,-5.63101 2.3125,-8.625z" fill="#F0D03A" id="svg_58" transform="translate(296,109)"/>
  <path d="m0,0c2.8279,2.29767 3.91278,3.38948 4.4375,7.0625c-0.46885,3.14798 -0.94131,4.06536 -3.4375,5.9375c-0.59813,-0.92812 -1.19625,-1.85625 -1.8125,-2.8125c-1.64023,-2.39005 -3.05939,-4.2722 -5.1875,-6.1875c2.31,0.66 4.62,1.32 7,2c-0.33,-1.98 -0.66,-3.96 -1,-6z" fill="#E4BF32" id="svg_59" transform="translate(326,102)"/>
  <path d="m0,0c1.41751,0.1151 2.83401,0.24254 4.25,0.375c0.78891,0.06961 1.57781,0.13922 2.39063,0.21094c2.44525,0.42913 4.20774,1.20007 6.35937,2.41406c-0.99,0.33 -1.98,0.66 -3,1c0,1.32 0,2.64 0,4c-0.59812,-0.30938 -1.19625,-0.61875 -1.8125,-0.9375c-2.27707,-1.1646 -2.27707,-1.1646 -5.1875,-2.0625c0,-0.99 0,-1.98 0,-3c-0.99,-0.66 -1.98,-1.32 -3,-2z" fill="#8F6A0B" id="svg_60" transform="translate(315,92)"/>
  <path d="m0,0c1.32,0.33 2.64,0.66 4,1c-0.33,0.99 -0.66,1.98 -1,3c0.66,0 1.32,0 2,0c0,0.66 0,1.32 0,2c0.66,0 1.32,0 2,0c0,1.65 0,3.3 0,5c0.99,0 1.98,0 3,0c-0.33,0.99 -0.66,1.98 -1,3c-3.93639,-1.31213 -4.28654,-2.82802 -6.1875,-6.4375c-0.79471,-1.48307 -0.79471,-1.48307 -1.60547,-2.99609c-1.20703,-2.56641 -1.20703,-2.56641 -1.20703,-4.56641z" fill="#ECAF1C" id="svg_61" transform="translate(134,336)"/>
  <path d="m0,0c0.99,0.33 1.98,0.66 3,1c-0.33773,0.51949 -0.67547,1.03898 -1.02344,1.57422c-2.39374,3.74281 -4.36317,7.27706 -5.97656,11.42578c-0.95824,1.36365 -1.94721,2.70794 -3,4c0.67171,-3.80635 1.72747,-7.35207 3,-11c0.66,0 1.32,0 2,0c0.14437,-0.78375 0.28875,-1.5675 0.4375,-2.375c0.5625,-2.625 0.5625,-2.625 1.5625,-4.625z" fill="#FBEB71" id="svg_62" transform="translate(331,296)"/>
  <path d="m0,0c4.11006,2.05503 5.42156,7.87176 7,12c-0.99,0 -1.98,0 -3,0c-0.66,-1.32 -1.32,-2.64 -2,-4c-0.66,0 -1.32,0 -2,0c-0.66,-1.98 -1.32,-3.96 -2,-6c0.66,0 1.32,0 2,0c0,-0.66 0,-1.32 0,-2z" fill="#F9ED7D" id="svg_63" transform="translate(322,126)"/>
  <path d="m0,0c3.3125,0.4375 3.3125,0.4375 5.3125,2.4375c-2.97,0 -5.94,0 -9,0c0,0.66 0,1.32 0,2c0.99,0.33 1.98,0.66 3,1c0,0.66 0,1.32 0,2c-2.64,-0.66 -5.28,-1.32 -8,-2c2.85238,-3.45743 4.14528,-4.89859 8.6875,-5.4375z" fill="#EACA32" id="svg_64" transform="translate(312.6875,94.5625)"/>
  <path d="m0,0c1.37563,1.28965 2.70766,2.62689 4,4c0,0.66 0,1.32 0,2c0.93586,0.33645 0.93586,0.33645 1.89063,0.67969c2.83268,1.77305 3.04192,3.25727 3.85937,6.44531c0.24234,0.91008 0.48469,1.82016 0.73438,2.75781c0.17015,0.69867 0.34031,1.39735 0.51562,2.11719c-3.08565,-2.71577 -5.07287,-6.08656 -7.1875,-9.5625c-0.36803,-0.58975 -0.73605,-1.17949 -1.11523,-1.78711c-2.69727,-4.39869 -2.69727,-4.39869 -2.69727,-6.65039z" fill="#FEF079" id="svg_65" transform="translate(114,292)"/>
  <path d="m0,0c2.64,1.32 5.28,2.64 8,4c-0.33,0.66 -0.66,1.32 -1,2c-2.64,0 -5.28,0 -8,0c-0.33,-0.99 -0.66,-1.98 -1,-3c0.66,-0.99 1.32,-1.98 2,-3z" fill="#6D4413" id="svg_66" transform="translate(309,103)"/>
  <path d="m0,0c0.66,0 1.32,0 2,0c-0.60699,4.12751 -2.03811,7.33211 -4,11c-0.66,0 -1.32,0 -2,0c-0.33,0.99 -0.66,1.98 -1,3c-1,-3 -1,-3 0,-6c0.66,0 1.32,0 2,0c0.30938,-0.94875 0.61875,-1.8975 0.9375,-2.875c1.0625,-3.125 1.0625,-3.125 2.0625,-5.125z" fill="#E0BC32" id="svg_67" transform="translate(108,153)"/>
  <path d="m0,0c0.66,0.33 1.32,0.66 2,1c-0.33,1.32 -0.66,2.64 -1,4c-0.66,0 -1.32,0 -2,0c0.33,1.65 0.66,3.3 1,5c-2.64,1.98 -5.28,3.96 -8,6c1.12452,-2.97194 2.22294,-5.33441 4,-8c0.66,0 1.32,0 2,0c0,-1.32 0,-2.64 0,-4c0.66,0 1.32,0 2,0c0,-1.32 0,-2.64 0,-4z" fill="#E7C43D" id="svg_68" transform="translate(358,254)"/>
  <path d="m0,0c3.25549,3.02295 5.68977,6.20462 8,10c0,0.66 0,1.32 0,2c-4.875,-0.875 -4.875,-0.875 -6,-2c-0.34542,-2.33157 -0.67794,-4.66508 -1,-7c-0.33,-0.99 -0.66,-1.98 -1,-3z" fill="#FAEF77" id="svg_69" transform="translate(344,164)"/>
  <path d="m0,0c2.91227,3.28805 4.49701,5.59886 5,10c0.66,0 1.32,0 2,0c-0.33,1.32 -0.66,2.64 -1,4c0,-0.66 0,-1.32 0,-2c-0.61875,-0.20625 -1.2375,-0.4125 -1.875,-0.625c-3.02375,-1.95655 -3.30141,-3.94337 -4.125,-7.375c0,-1.32 0,-2.64 0,-4z" fill="#FCF17A" id="svg_70" transform="translate(335,148)"/>
  <path d="m0,0c1,2 1,2 0.22266,4.60156c-0.38286,0.99774 -0.76571,1.99547 -1.16016,3.02344c-0.38027,1.00289 -0.76055,2.00578 -1.15234,3.03906c-0.30036,0.77086 -0.60071,1.54172 -0.91016,2.33594c-1.32,0 -2.64,0 -4,0c1.64178,-4.77609 4.26547,-8.79383 7,-13z" fill="#E5C743" id="svg_71" transform="translate(375,227)"/>
  <path d="m0,0c2.76276,0.52268 5.32609,1.1087 8,2c0.8125,1.875 0.8125,1.875 1,4c-0.99,1.485 -0.99,1.485 -2,3c-1.16963,-1.30986 -2.33563,-2.62296 -3.5,-3.9375c-0.64969,-0.7309 -1.29937,-1.4618 -1.96875,-2.21484c-1.53125,-1.84766 -1.53125,-1.84766 -1.53125,-2.84766z" fill="#7A5702" id="svg_72" transform="translate(309,112)"/>
  <path d="m0,0c2.125,0.375 2.125,0.375 4,1c-0.7425,0.70125 -1.485,1.4025 -2.25,2.125c-2.72817,2.85218 -4.66303,5.55131 -6.75,8.875c-0.33,-0.99 -0.66,-1.98 -1,-3c1.77555,-3.48986 3.24152,-6.24152 6,-9z" fill="#F5B719" id="svg_73" transform="translate(379,228)"/>
  <path d="m0,0c0.33,0 0.66,0 1,0c0.33,2.64 0.66,5.28 1,8c0.66,0 1.32,0 2,0c-0.33,1.32 -0.66,2.64 -1,4c-2.5625,-2.1875 -2.5625,-2.1875 -5,-5c0.13137,-2.82438 0.74738,-4.49475 2,-7z" fill="#FCF178" id="svg_74" transform="translate(73,216)"/>
  <path d="m0,0c0.33,0 0.66,0 1,0c0.51749,2.84618 0.34894,4.49283 -1.30078,6.89063c-1.51202,1.77544 -3.01774,3.4931 -4.69922,5.10937c-0.33,0 -0.66,0 -1,0c0.33,-2.31 0.66,-4.62 1,-7c1.32,0 2.64,0 4,0c0.33,-1.65 0.66,-3.3 1,-5z" fill="#EEC636" id="svg_75" transform="translate(358,266)"/>
  <path d="m0,0c3.33633,2.9912 5.24528,5.8764 7,10c0,0.99 0,1.98 0,3c-0.33,-0.33 -0.66,-0.66 -1,-1c-0.66,0.66 -1.32,1.32 -2,2c-0.33,-2.64 -0.66,-5.28 -1,-8c-0.99,-0.33 -1.98,-0.66 -3,-1c0,-1.65 0,-3.3 0,-5z" fill="#E7C740" id="svg_76" transform="translate(83,242)"/>
  <path d="m0,0c2,1 2,1 3,3.9375c0.33,1.01063 0.66,2.02125 1,3.0625c0.66,0.66 1.32,1.32 2,2c0.125,2.625 0.125,2.625 0,5c-3.09593,-3.50872 -4.74195,-6.49197 -6,-11c-0.66,0 -1.32,0 -2,0c0,-0.66 0,-1.32 0,-2c0.66,-0.33 1.32,-0.66 2,-1z" fill="#E2C037" id="svg_77" transform="translate(359,183)"/>
  <path d="m0,0c0.66,0 1.32,0 2,0c-1.41292,4.82748 -3.42974,8.71624 -6,13c-1.01693,-2.65498 -1.13022,-3.69155 -0.00391,-6.35937c0.47567,-0.78891 0.95133,-1.57782 1.44141,-2.39063c0.47309,-0.79922 0.94617,-1.59844 1.43359,-2.42187c0.37254,-0.60329 0.74508,-1.20657 1.12891,-1.82813z" fill="#E2BD32" id="svg_78" transform="translate(139,102)"/>
  <path d="m0,0c0.33,0.66 0.66,1.32 1,2c-1.8125,3 -1.8125,3 -4,6c-0.99,0 -1.98,0 -3,0c0.1875,-2.875 0.1875,-2.875 1,-6c2.5625,-1.375 2.5625,-1.375 5,-2z" fill="#EDC226" id="svg_79" transform="translate(337,301)"/>
  <path d="m0,0c0.66,0 1.32,0 2,0c1.65,3.3 3.3,6.6 5,10c-1.32,0 -2.64,0 -4,0c-3,-6.625 -3,-6.625 -3,-10z" fill="#F4B913" id="svg_80" transform="translate(358,176)"/>
  <path d="m0,0c0.66,0.66 1.32,1.32 2,2c-0.03288,2.72869 -0.56398,5.29666 -1,8c-1.65,0 -3.3,0 -5,0c1.33333,-3.33333 2.66667,-6.66667 4,-10z" fill="#877B20" id="svg_81" transform="translate(311,84)"/>
  <path d="m0,0c0.33,0.66 0.66,1.32 1,2c1.65,0 3.3,0 5,0c-0.55687,0.20625 -1.11375,0.4125 -1.6875,0.625c-3.23751,1.92501 -4.99481,4.41351 -7.3125,7.375c0,-3.39655 0.48183,-7.48183 3,-10z" fill="#F7D02A" id="svg_82" transform="translate(313,342)"/>
  <path d="m0,0c0.75,1.6875 0.75,1.6875 1,4c-1.28062,1.7075 -2.61768,3.37374 -4,5c-0.18562,0.7425 -0.37125,1.485 -0.5625,2.25c-0.14438,0.5775 -0.28875,1.155 -0.4375,1.75c-0.99,0.33 -1.98,0.66 -3,1c0.61664,-4.00815 2.73593,-6.7068 5,-10c0.69429,-1.31916 1.3753,-2.64649 2,-4z" fill="#FBE96D" id="svg_83" transform="translate(138,108)"/>
  <path d="m0,0c1.65,0 3.3,0 5,0c-1.32,0.33 -2.64,0.66 -4,1c0,0.66 0,1.32 0,2c0.99,0.33 1.98,0.66 3,1c-0.33,1.32 -0.66,2.64 -1,4c-1.32,0 -2.64,0 -4,0c0.33,-2.64 0.66,-5.28 1,-8z" fill="#D2AE0C" id="svg_84" transform="translate(297,111)"/>
  <path d="m0,0c2.5625,2.0625 2.5625,2.0625 5,5c-0.1875,3.8125 -0.1875,3.8125 -1,7c-0.66,0 -1.32,0 -2,0c-0.06059,-0.61488 -0.12117,-1.22977 -0.18359,-1.86328c-0.08379,-0.80824 -0.16758,-1.61649 -0.25391,-2.44922c-0.08121,-0.80051 -0.16242,-1.60102 -0.24609,-2.42578c-0.26907,-2.42259 -0.26907,-2.42259 -1.31641,-5.26172z" fill="#68570A" id="svg_85" transform="translate(310,74)"/>
  <path d="m0,0c0.66,0 1.32,0 2,0c-1.45077,4.11051 -3.34246,7.53714 -6,11c-0.99,0 -1.98,0 -3,0c1.11631,-1.83864 2.2433,-3.6708 3.375,-5.5c0.62648,-1.02094 1.25297,-2.04188 1.89844,-3.09375c0.56976,-0.79406 1.13953,-1.58812 1.72656,-2.40625z" fill="#DAB513" id="svg_86" transform="translate(117,133)"/>
  <path d="m0,0c0,3.86696 -1.4191,6.50885 -3,10c-0.66,0 -1.32,0 -2,0c-0.33,0.66 -0.66,1.32 -1,2c0.33,-2.31 0.66,-4.62 1,-7c0.99,-0.33 1.98,-0.66 3,-1c0,-0.99 0,-1.98 0,-3c0.66,-0.33 1.32,-0.66 2,-1z" fill="#FDF37F" id="svg_87" transform="translate(318,320)"/>
  <path d="m0,0c1.20628,2.33214 2.16547,4.49642 3,7c-0.99,1.485 -0.99,1.485 -2,3c-1.5625,-1.75 -1.5625,-1.75 -3,-4c0.2767,-2.35191 0.94344,-3.88687 2,-6z" fill="#E1BD36" id="svg_88" transform="translate(75,202)"/>
  <path d="m0,0c3.46942,0.45822 6.67395,0.89132 10,2c-0.33,0.66 -0.66,1.32 -1,2c-2.50391,0.41406 -2.50391,0.41406 -5.5625,0.625c-1.01191,0.07477 -2.02383,0.14953 -3.06641,0.22656c-0.78246,0.04899 -1.56492,0.09797 -2.37109,0.14844c0.66,-0.33 1.32,-0.66 2,-1c0,-1.32 0,-2.64 0,-4z" fill="#807C2E" id="svg_89" transform="translate(332,110)"/>
  <path d="m0,0c5.5,-0.36667 5.5,-0.36667 7.875,1.375c1.125,1.625 1.125,1.625 1.125,3.625c-1.65,-0.33 -3.3,-0.66 -5,-1c0,-0.66 0,-1.32 0,-2c-1.32,-0.66 -2.64,-1.32 -4,-2z" fill="#F7D807" id="svg_90" transform="translate(316,100)"/>
  <path d="m0,0c1.6415,3.28301 0.51889,6.42545 0,10c-1.32,0 -2.64,0 -4,0c0,-4.24645 1.81751,-6.38525 4,-10z" fill="#E6C53E" id="svg_91" transform="translate(349,270)"/>
  <path d="m0,0c0.99,0 1.98,0 3,0c0,0.99 0,1.98 0,3c-0.66,0 -1.32,0 -2,0c-0.66,1.65 -1.32,3.3 -2,5c-0.66,-0.33 -1.32,-0.66 -2,-1c1.875,-5.875 1.875,-5.875 3,-7z" fill="#EAC11E" id="svg_92" transform="translate(124,120)"/>
  <path d="m0,0c1.32,0.33 2.64,0.66 4,1c-0.66,1.32 -1.32,2.64 -2,4c-1.65,0 -3.3,0 -5,0c0.99,-1.65 1.98,-3.3 3,-5z" fill="#E4EAA0" id="svg_93" transform="translate(330,115)"/>
  <path d="m0,0c0,0.66 0,1.32 0,2c0.99,0.33 1.98,0.66 3,1c0,1.65 0,3.3 0,5c-0.66,-0.66 -1.32,-1.32 -2,-2c0,-0.99 0,-1.98 0,-3c-2.31,0 -4.62,0 -7,0c2.625,-3 2.625,-3 6,-3z" fill="#937F21" id="svg_94" transform="translate(301,76)"/>
  <path d="m0,0c3.32851,2.98418 5.32057,5.84563 7,10c-0.33,0.99 -0.66,1.98 -1,3c-1.00509,-1.78882 -2.00393,-3.58115 -3,-5.375c-0.83531,-1.4966 -0.83531,-1.4966 -1.6875,-3.02344c-1.3125,-2.60156 -1.3125,-2.60156 -1.3125,-4.60156z" fill="#FDF179" id="svg_95" transform="translate(87,246)"/>
  <path d="m0,0c1.32,0.33 2.64,0.66 4,1c-1.24917,3.45925 -2.67528,6.14693 -5,9c-0.66,-0.33 -1.32,-0.66 -2,-1c0.495,-0.55687 0.99,-1.11375 1.5,-1.6875c1.74754,-2.69413 1.76219,-4.16625 1.5,-7.3125z" fill="#EDB818" id="svg_96" transform="translate(362,251)"/>
  <path d="m0,0c0.66,0 1.32,0 2,0c0.66,1.98 1.32,3.96 2,6c-0.66,0.66 -1.32,1.32 -2,2c-0.66,-0.33 -1.32,-0.66 -2,-1c0,-2.31 0,-4.62 0,-7z" fill="#ECC31C" id="svg_97" transform="translate(377,209)"/>
  <path d="m0,0c3.60654,2.40436 3.85453,3.9468 5,8c-1.32,0 -2.64,0 -4,0c-1.3544,-2.70879 -1.06501,-5.00933 -1,-8z" fill="#FCEE76" id="svg_98" transform="translate(361,192)"/>
  <path d="m0,0c0.66,0.66 1.32,1.32 2,2c0.66,-0.33 1.32,-0.66 2,-1c-1.293,2.88438 -2.65941,4.87219 -5,7c-0.625,-2.3125 -0.625,-2.3125 -1,-5c0.66,-0.99 1.32,-1.98 2,-3z" fill="#E9C539" id="svg_99" transform="translate(111,147)"/>
  <path d="m0,0c1.32,0 2.64,0 4,0c0.66,3.63 1.32,7.26 2,11c-2.15267,-2.15267 -2.93474,-3.84774 -4.125,-6.625c-0.3532,-0.81727 -0.70641,-1.63453 -1.07031,-2.47656c-0.26555,-0.62649 -0.5311,-1.25297 -0.80469,-1.89844z" fill="#FAF176" id="svg_100" transform="translate(76,229)"/>
  <path d="m0,0c-0.49832,3.68755 -1.10068,5.60491 -4,8c-0.66,-1.32 -1.32,-2.64 -2,-4c3.75,-4 3.75,-4 6,-4z" fill="#ECC43D" id="svg_101" transform="translate(120,138)"/>
  <path d="m0,0c0.33,0.66 0.66,1.32 1,2c-2.24731,6.62366 -2.24731,6.62366 -7,9c1.98,-3.63 3.96,-7.26 6,-11z" fill="#FBE76E" id="svg_102" transform="translate(126,128)"/>
  <path d="m0,0c1.32,0 2.64,0 4,0c0.33,1.32 0.66,2.64 1,4c-1.65,-0.33 -3.3,-0.66 -5,-1c0,1.98 0,3.96 0,6c-0.33,0 -0.66,0 -1,0c-0.125,-6.75 -0.125,-6.75 1,-9z" fill="#DDDA8E" id="svg_103" transform="translate(298,79)"/>
  <path d="m0,0c0.6875,1.6875 0.6875,1.6875 1,4c-1.3125,2.75 -1.3125,2.75 -3,5c-0.66,0 -1.32,0 -2,0c0.64544,-3.4854 2.10134,-6.02819 4,-9z" fill="#E3BF36" id="svg_104" transform="translate(332,299)"/>
  <path d="m0,0c1.32,0 2.64,0 4,0c0.33,2.64 0.66,5.28 1,8c-2.79872,-2.52788 -4.45773,-4.20411 -5,-8z" fill="#E9CA46" id="svg_105" transform="translate(352,176)"/>
  <path d="m0,0c0.33,0 0.66,0 1,0c0.25,2.8125 0.25,2.8125 0,6c-2,1.875 -2,1.875 -4,3c0.33,-2.31 0.66,-4.62 1,-7c0.66,0 1.32,0 2,0c0,-0.66 0,-1.32 0,-2z" fill="#FDF378" id="svg_106" transform="translate(106,162)"/>
  <path d="m0,0c0.99,0.495 0.99,0.495 2,1c0.41406,2.06641 0.41406,2.06641 0.625,4.5625c0.07477,0.82629 0.14953,1.65258 0.22656,2.50391c0.07348,0.95713 0.07348,0.95713 0.14844,1.93359c-1.48828,-1.26953 -1.48828,-1.26953 -3,-3c-0.1875,-3.6875 -0.1875,-3.6875 0,-7z" fill="#ECCE48" id="svg_107" transform="translate(294,114)"/>
  <path d="m0,0c3.2542,2.8343 4.52068,4.68608 5,9c-0.99,0.495 -0.99,0.495 -2,1c0,-1.32 0,-2.64 0,-4c-0.66,0 -1.32,0 -2,0c-0.33,-1.98 -0.66,-3.96 -1,-6z" fill="#E9CA42" id="svg_108" transform="translate(131,322)"/>
  <path d="m0,0c2.72426,2.35277 3.81418,4.62496 5,8c-1.32,0 -2.64,0 -4,0c-0.33,-2.64 -0.66,-5.28 -1,-8z" fill="#FAEE73" id="svg_109" transform="translate(366,200)"/>
  <path d="m0,0c0.33,0.99 0.66,1.98 1,3c-0.66,0 -1.32,0 -2,0c-0.66,1.98 -1.32,3.96 -2,6c-1.23139,-2.46279 -1.07159,-4.27951 -1,-7c1.32,-0.66 2.64,-1.32 4,-2z" fill="#ECCA44" id="svg_110" transform="translate(84,197)"/>
  <path d="m0,0c0.66,1.32 1.32,2.64 2,4c-0.99,1.32 -1.98,2.64 -3,4c-0.99,-0.33 -1.98,-0.66 -3,-1c0.47437,-0.78375 0.94875,-1.5675 1.4375,-2.375c0.90148,-1.51449 1.77429,-3.04859 2.5625,-4.625z" fill="#FEF783" id="svg_111" transform="translate(91,188)"/>
  <path d="m0,0c0.99,0 1.98,0 3,0c0,0.99 0,1.98 0,3c-0.99,0 -1.98,0 -3,0c-0.33,0.99 -0.66,1.98 -1,3c-0.66,0 -1.32,0 -2,0c1.875,-4.875 1.875,-4.875 3,-6z" fill="#E6B829" id="svg_112" transform="translate(118,135)"/>
  <path d="m0,0c0,1.98 0,3.96 0,6c-0.99,0.33 -1.98,0.66 -3,1c0,-1.98 0,-3.96 0,-6c2,-1 2,-1 3,-1z" fill="#FEF7A3" id="svg_113" transform="translate(291,113)"/>
  <path d="m0,0c1.625,1.6875 1.625,1.6875 3,4c-0.8125,2.75 -0.8125,2.75 -2,5c-0.33,0 -0.66,0 -1,0c-1.125,-6.75 -1.125,-6.75 0,-9z" fill="#F0E992" id="svg_114" transform="translate(297,94)"/>
  <path d="m0,0c0.66,0 1.32,0 2,0c0,2.64 0,5.28 0,8c-1.65,-0.33 -3.3,-0.66 -5,-1c0.66,-0.66 1.32,-1.32 2,-2c0.64768,-2.57061 0.64768,-2.57061 1,-5z" fill="#F1FBBA" id="svg_115" transform="translate(307,81)"/>
  <path d="m0,0c1.32,0.33 2.64,0.66 4,1c0.33,2.31 0.66,4.62 1,7c-2.25246,-2.68842 -3.88214,-4.64642 -5,-8z" fill="#FDF57C" id="svg_116" transform="translate(140,336)"/>
  <path d="m0,0c1.98,0.66 3.96,1.32 6,2c0,0.66 0,1.32 0,2c-0.99,0 -1.98,0 -3,0c-0.33,0.66 -0.66,1.32 -1,2c-0.66,-1.98 -1.32,-3.96 -2,-6z" fill="#CFB23F" id="svg_117" transform="translate(323,126)"/>
  <path d="m0,0c0.66,0.33 1.32,0.66 2,1c0,1.65 0,3.3 0,5c-1.32,0.33 -2.64,0.66 -4,1c0.66,-2.31 1.32,-4.62 2,-7z" fill="#5C5010" id="svg_118" transform="translate(342,114)"/>
  <path d="m0,0c2.97,0.495 2.97,0.495 6,1c0.33,0.99 0.66,1.98 1,3c-2.64,-0.66 -5.28,-1.32 -8,-2c0.33,-0.66 0.66,-1.32 1,-2z" fill="#E4C539" id="svg_119" transform="translate(305,98)"/>
  <path d="m0,0c0.99,0.33 1.98,0.66 3,1c-0.99,0.33 -1.98,0.66 -3,1c0,-0.66 0,-1.32 0,-2z" fill="#FBB109" id="svg_120" transform="translate(122,95)"/>
  <path d="m0,0c0.66,0.66 1.32,1.32 2,2c-0.99,0.495 -0.99,0.495 -2,1c0,-0.99 0,-1.98 0,-3z" fill="#F5C034" id="svg_121" transform="translate(371,187)"/>
  <path d="m0,0c3,1 3,1 3,1l-3,-1z" fill="#FFF513" id="svg_122" transform="translate(137,362)"/>
  <path d="m0,0c3,1 3,1 3,1l-3,-1z" fill="#F7F749" id="svg_124" transform="translate(169,81)"/>
  <path d="m0,0c3,1 3,1 3,1l-3,-1z" fill="#FFFF55" id="svg_125" transform="translate(258,72)"/>
  <path fill="#FFB81C" id="svg_126" transform="translate(0,0)"/>
  <path fill="#FFFF00" id="svg_127" transform="translate(0,0)"/>
  <path d="m0,0c2,1 2,1 2,1l-2,-1z" fill="#FFF168" id="svg_128" transform="translate(354,290)"/>
  <path fill="#FFFF00" id="svg_129" transform="translate(0,0)"/>
  <path fill="#FFF531" id="svg_130" transform="translate(0,0)"/>
  <path fill="#FFDF10" id="svg_131" transform="translate(0,0)"/>
  <path fill="#D4D42A" id="svg_132" transform="translate(0,0)"/>
  <path d="m0,0c2,1 2,1 2,1l-2,-1z" fill="#E5E519" id="svg_133" transform="translate(174,80)"/>
  <path d="m0,0c2,1 2,1 2,1l-2,-1z" fill="#FFFF2A" id="svg_134" transform="translate(260,76)"/>
  <path fill="#FFFF00" id="svg_136" transform="translate(0,0)"/>
  <path fill="#FFD555" id="svg_137" transform="translate(0,0)"/>
  <path fill="#FFFF00" id="svg_138" transform="translate(0,0)"/>
  <path fill="#FFFF00" id="svg_139" transform="translate(0,0)"/>
  <path fill="#FFFF66" id="svg_140" transform="translate(0,0)"/>
  <path fill="#FFBF00" id="svg_141" transform="translate(0,0)"/>
  <path fill="#FFFF00" id="svg_142" transform="translate(0,0)"/>
  <path fill="#FFFFFF" id="svg_143" transform="translate(0,0)"/>
 </g>
</svg>